<?xml version="1.0" standalone="no"?>
<!DOCTYPE svg PUBLIC "-//W3C//DTD SVG 20010904//EN"
 "http://www.w3.org/TR/2001/REC-SVG-20010904/DTD/svg10.dtd">
<svg version="1.0" xmlns="http://www.w3.org/2000/svg"
 width="935.000000pt" height="935.000000pt" viewBox="0 0 935.000000 935.000000"
 preserveAspectRatio="xMidYMid meet">
<metadata>
Created by potrace 1.14, written by Peter Selinger 2001-2017
</metadata>
<g transform="translate(0.000000,935.000000) scale(0.100000,-0.100000)"
fill="#000000" stroke="none">
<path d="M2985 9040 c-3 -5 -1 -10 4 -10 6 0 11 5 11 10 0 6 -2 10 -4 10 -3 0
-8 -4 -11 -10z"/>
<path d="M1875 8530 c4 -21 -9 -27 -20 -10 -4 6 -12 7 -18 3 -7 -4 -18 -8 -26
-10 -7 -1 -19 -7 -25 -14 -8 -9 -7 -10 4 -4 12 6 12 5 3 -5 -12 -13 -37 -4
-28 11 3 5 -1 6 -10 2 -12 -4 -13 -8 -5 -13 8 -5 4 -9 -10 -13 -12 -3 -19 -10
-15 -16 9 -16 -1 -13 -14 3 -9 11 -9 16 0 22 8 5 9 3 4 -6 -6 -9 -4 -11 4 -6
7 5 10 11 7 14 -3 3 0 12 6 21 8 9 3 8 -12 -4 -14 -11 -31 -28 -38 -38 -7 -9
-18 -15 -23 -12 -5 4 -9 1 -9 -6 0 -7 -7 -4 -15 7 -8 10 -15 15 -15 10 0 -5
-8 -2 -17 5 -16 13 -17 12 -4 -4 12 -15 12 -20 1 -30 -9 -9 -11 -9 -6 0 3 6 2
14 -3 17 -5 3 -12 -1 -15 -10 -3 -9 -12 -14 -20 -11 -7 3 -18 1 -24 -5 -8 -8
-16 -8 -24 -1 -17 12 -56 14 -63 2 -4 -5 2 -6 11 -2 13 5 15 3 9 -8 -8 -12 -6
-12 8 0 10 8 20 11 24 7 3 -3 1 -6 -6 -6 -7 0 -10 -4 -7 -9 4 -5 -5 -8 -19 -6
-16 1 -25 -3 -25 -11 0 -8 -5 -14 -11 -14 -6 0 -8 9 -4 21 5 15 4 19 -4 15 -6
-4 -11 -14 -11 -22 0 -8 -7 -17 -15 -20 -13 -5 -13 -9 -3 -22 10 -12 10 -14 1
-8 -7 4 -13 2 -13 -4 0 -6 -16 -20 -35 -32 -34 -19 -43 -47 -14 -40 9 2 7 -4
-5 -17 -10 -11 -23 -18 -29 -14 -6 4 -7 -4 -2 -23 8 -30 8 -36 3 -69 -4 -23
-39 -61 -54 -57 -6 1 -9 -12 -8 -33 2 -21 -1 -33 -6 -30 -13 8 -13 -2 1 -26 8
-15 7 -24 -2 -35 -6 -8 -9 -17 -6 -21 4 -3 2 -12 -3 -19 -6 -6 -10 -16 -9 -20
1 -5 -3 -22 -9 -37 -7 -16 -12 -34 -12 -42 0 -7 -6 -20 -14 -27 -15 -15 -4
-58 14 -58 7 0 9 -8 5 -20 -4 -12 -2 -27 4 -34 9 -10 8 -15 -2 -19 -8 -3 -14
-24 -16 -53 -1 -27 -4 -50 -6 -53 -2 -2 0 -12 5 -22 7 -12 7 -20 0 -24 -5 -3
-10 -25 -10 -49 0 -23 -5 -47 -12 -54 -9 -9 -9 -15 -1 -23 12 -12 6 -49 -9
-49 -5 0 -6 -6 -2 -12 10 -15 6 -236 -4 -275 -9 -33 -8 -159 3 -293 3 -52 8
-114 10 -136 1 -23 12 -66 23 -96 11 -30 19 -67 18 -81 -2 -15 0 -24 4 -22 4
3 8 -21 9 -53 2 -77 3 -82 12 -82 4 0 5 -24 2 -52 -10 -97 -8 -242 4 -308 7
-36 15 -126 18 -200 3 -74 7 -147 9 -162 3 -17 0 -28 -7 -28 -7 0 -4 -5 6 -11
9 -5 17 -20 17 -31 0 -12 8 -30 17 -40 14 -16 15 -21 4 -27 -11 -7 -11 -16 -1
-45 6 -20 18 -43 26 -51 9 -8 17 -40 20 -74 2 -32 11 -75 19 -96 9 -20 13 -45
10 -56 -4 -11 -1 -26 5 -34 14 -17 -2 -45 -25 -45 -16 0 -25 -22 -25 -59 0
-28 -41 -99 -137 -235 -68 -98 -83 -124 -87 -154 -2 -15 -10 -43 -19 -62 -8
-19 -23 -53 -33 -75 -9 -22 -25 -80 -35 -130 -19 -93 -25 -240 -11 -231 5 3 8
-7 7 -22 -1 -15 6 -33 14 -40 14 -11 14 -11 0 -6 -10 3 -20 0 -24 -5 -3 -6
-12 -8 -18 -4 -7 4 -6 0 2 -10 9 -11 10 -17 2 -17 -6 0 -11 -5 -11 -11 0 -5 5
-7 10 -4 19 12 23 -26 4 -39 -17 -13 -15 -14 14 -10 30 3 32 2 28 -21 -3 -14
-7 -29 -11 -34 -3 -5 3 -14 12 -20 11 -6 13 -11 5 -11 -7 0 -10 -5 -6 -12 4
-7 3 -8 -5 -4 -6 4 -8 12 -5 18 5 7 2 8 -6 3 -9 -6 -11 -4 -5 6 9 14 9 14 -35
-19 -3 -2 4 -2 14 0 10 1 21 -3 23 -10 3 -8 -2 -10 -14 -6 -14 5 -15 4 -4 -4
8 -6 23 -9 33 -7 12 3 16 0 12 -7 -4 -7 -8 -30 -9 -52 -1 -46 -21 -90 -35 -81
-6 4 -7 -2 -3 -11 4 -11 8 -13 11 -6 2 7 9 9 14 6 6 -4 8 -2 4 4 -3 6 -1 14 5
18 8 4 9 3 5 -5 -4 -6 0 -14 9 -17 14 -6 14 -8 -2 -19 -9 -7 -23 -11 -30 -8
-7 3 -13 0 -13 -7 0 -6 5 -8 10 -5 6 3 10 0 10 -9 0 -8 -6 -17 -12 -20 -7 -3
-2 -3 12 1 21 5 23 4 12 -9 -7 -9 -9 -24 -5 -33 4 -12 3 -16 -4 -12 -6 4 -10
-1 -9 -11 0 -9 -5 -16 -12 -14 -8 1 -11 -2 -7 -8 4 -6 12 -5 25 2 10 7 17 16
14 20 -3 4 2 5 11 1 12 -4 13 -8 5 -13 -6 -4 -11 -10 -11 -14 3 -23 -1 -36
-11 -33 -15 3 -23 -32 -10 -45 6 -6 8 -1 5 14 -4 18 0 24 16 25 12 1 19 -3 15
-8 -3 -6 1 -18 10 -28 14 -15 14 -18 1 -18 -8 0 -11 5 -8 10 3 6 1 7 -6 3 -6
-4 -9 -12 -6 -17 4 -5 1 -9 -4 -9 -6 0 -11 -5 -11 -10 0 -7 6 -7 19 0 30 15
38 12 13 -6 -12 -8 -20 -19 -17 -24 3 -4 -1 -11 -7 -13 -10 -4 -10 -6 0 -6 7
-1 10 -6 6 -13 -5 -7 -3 -8 6 -3 10 6 12 4 6 -11 -4 -10 -4 -15 0 -11 4 4 14
-2 21 -13 8 -12 20 -17 26 -13 7 4 6 0 -2 -10 -13 -16 -36 -14 -26 3 3 4 -2
10 -10 13 -10 4 -12 1 -8 -10 5 -12 3 -14 -8 -8 -8 5 -11 5 -6 -1 5 -5 13 -9
19 -9 6 0 12 -8 14 -18 1 -9 -1 -17 -5 -17 -4 0 -8 -13 -8 -29 0 -22 3 -26 13
-17 9 8 9 14 0 25 -8 11 -8 13 1 8 8 -5 11 -1 8 13 -2 11 1 20 7 20 5 0 7 -7
4 -16 -5 -12 -2 -15 11 -10 15 5 15 4 -1 -9 -17 -13 -16 -18 4 -17 3 0 6 -15
6 -34 1 -19 -3 -34 -8 -34 -5 0 -7 -4 -3 -9 3 -5 -2 -17 -11 -25 -8 -9 -11
-16 -5 -16 6 0 18 -14 26 -30 9 -18 21 -28 27 -24 7 4 8 3 4 -5 -6 -8 -12 -9
-20 -2 -7 6 -16 8 -20 4 -4 -4 4 -13 16 -21 l23 -13 -26 5 c-18 4 -31 0 -40
-12 -11 -14 -11 -15 1 -4 17 15 34 16 24 1 -4 -8 1 -9 17 -5 20 6 21 5 7 -4
-11 -7 -15 -18 -12 -33 3 -12 6 -34 7 -49 3 -42 12 -41 12 3 0 21 -4 39 -9 39
-5 0 -6 3 -3 6 12 12 38 -18 28 -30 -12 -14 -8 -48 5 -44 5 2 8 7 6 11 -1 5 2
6 8 2 8 -5 8 -11 -1 -21 -6 -7 -15 -11 -20 -8 -5 3 -9 0 -9 -7 0 -8 -5 -7 -17
2 -16 12 -17 12 -6 -2 7 -9 9 -20 5 -24 -4 -5 -1 -5 5 -1 7 4 13 2 13 -4 0 -6
5 -8 11 -4 8 4 7 9 -2 15 -10 6 -8 8 7 7 11 -1 21 -8 21 -15 0 -6 -4 -10 -9
-7 -4 3 -8 -2 -8 -11 0 -9 5 -13 10 -10 6 3 10 2 10 -3 0 -5 -10 -14 -22 -20
l-23 -11 25 2 c14 1 29 7 33 12 5 6 7 4 4 -5 -2 -8 -10 -14 -16 -12 -8 1 -9
-3 -3 -15 5 -10 7 -24 5 -30 -3 -7 0 -13 7 -13 6 0 9 4 6 8 -3 5 1 9 9 9 8 0
13 -5 12 -11 -1 -6 3 -10 9 -9 6 1 11 -4 11 -12 0 -8 -4 -12 -9 -9 -4 3 -8 0
-8 -5 0 -6 5 -11 12 -11 6 0 9 -2 6 -5 -3 -3 -13 -3 -22 1 -12 5 -14 10 -6 19
7 8 7 16 2 19 -6 3 -12 -3 -15 -15 -3 -13 0 -22 10 -26 12 -5 12 -7 1 -15 -8
-5 -2 -7 17 -3 17 3 25 3 18 -1 -7 -3 -9 -13 -6 -22 5 -14 3 -15 -8 -5 -7 7
-18 13 -23 13 -6 0 -3 -5 8 -11 15 -9 16 -13 5 -21 -11 -7 -10 -8 5 -6 11 2
20 -4 21 -14 4 -23 41 -69 49 -61 6 6 10 -13 7 -31 -1 -4 4 -14 10 -22 7 -8 7
-14 1 -14 -5 0 -15 7 -23 16 -10 13 -10 17 2 26 12 8 12 9 0 6 -21 -6 -24 -23
-7 -41 8 -8 12 -18 8 -22 -4 -5 1 -6 10 -2 9 3 18 0 21 -6 6 -17 -3 -38 -14
-32 -5 4 -6 -1 -3 -9 3 -9 14 -16 23 -16 11 0 12 3 4 8 -8 5 -8 12 3 26 12 17
13 16 9 -13 -3 -26 1 -34 18 -41 14 -6 16 -9 6 -9 -8 -1 -21 5 -28 12 -10 10
-11 8 -5 -7 5 -14 4 -17 -5 -11 -8 4 -6 -3 4 -18 10 -17 23 -24 36 -22 11 2
17 0 14 -6 -4 -5 -11 -7 -16 -4 -23 15 -6 -12 18 -29 16 -9 20 -15 11 -12 -10
3 -18 1 -18 -5 0 -6 -5 -7 -11 -3 -8 4 -7 9 2 15 10 6 10 9 2 9 -16 0 -26 -17
-13 -25 6 -4 7 -11 4 -17 -4 -7 -2 -8 4 -4 7 4 12 1 12 -6 0 -15 37 -41 48
-34 4 2 8 -4 8 -14 0 -10 -4 -16 -8 -14 -4 3 -8 0 -8 -6 0 -6 -4 -9 -8 -6 -5
3 -9 -1 -9 -9 0 -12 3 -12 15 -2 13 10 14 8 7 -13 -7 -23 -7 -24 10 -10 17 14
17 14 6 -7 -14 -27 3 -32 18 -5 6 9 10 13 10 7 0 -17 -26 -45 -34 -37 -5 4 -5
2 -2 -5 4 -6 1 -14 -5 -17 -7 -3 -1 -3 14 -1 15 2 31 -1 34 -7 5 -7 2 -8 -6
-3 -9 6 -10 2 -5 -15 5 -15 3 -20 -3 -16 -6 3 -14 2 -17 -4 -4 -6 -1 -9 7 -8
7 2 12 -3 10 -10 -1 -8 1 -11 6 -8 4 2 14 1 22 -5 13 -7 12 -9 -2 -9 -10 0
-18 -4 -18 -9 0 -12 33 -9 43 4 5 6 7 3 4 -7 -3 -9 -1 -19 6 -22 9 -3 8 -5 -1
-5 -7 -1 -10 -6 -7 -11 5 -8 12 -7 23 2 13 10 13 8 -1 -9 -18 -20 -18 -22 0
-32 17 -10 17 -10 1 -11 -10 0 -19 5 -19 10 -1 6 -3 15 -4 20 -1 6 -3 13 -4
17 -2 15 -25 -18 -26 -38 -2 -20 -1 -20 10 -5 11 15 13 15 19 1 3 -8 0 -15 -7
-15 -8 0 -6 -4 3 -10 20 -13 39 -12 20 1 -13 9 -13 10 0 6 8 -2 15 -10 15 -18
1 -8 6 -13 13 -11 10 2 10 -2 0 -17 -8 -13 -16 -17 -23 -11 -8 6 -12 5 -12 -4
0 -14 14 -16 34 -3 6 4 15 2 19 -4 4 -8 3 -9 -4 -5 -7 4 -12 1 -12 -8 0 -10
-6 -13 -17 -10 -15 5 -15 4 -3 -4 10 -8 19 -7 29 1 15 12 15 12 -5 -38 -4 -8
-1 -15 6 -15 10 0 9 -4 -1 -17 -11 -15 -11 -16 1 -6 17 16 23 46 7 36 -7 -4
-6 1 2 10 17 21 18 21 18 0 0 -42 2 -46 18 -33 13 11 14 10 9 -4 -3 -9 -13
-15 -22 -14 -8 2 -16 -4 -17 -13 -2 -9 3 -16 11 -16 7 0 11 4 8 9 -3 4 0 8 5
8 6 0 11 -5 11 -11 0 -5 6 -7 13 -3 8 5 8 2 -2 -9 -8 -10 -9 -17 -3 -17 6 0
14 5 17 10 3 6 11 10 16 10 6 0 3 -7 -6 -16 -13 -13 -14 -19 -4 -25 16 -10 41
9 32 24 -4 6 -1 7 6 3 7 -5 10 -10 7 -13 -3 -3 9 -19 27 -36 17 -16 24 -24 15
-17 -10 7 -18 9 -18 5 0 -4 -9 3 -20 16 -10 13 -19 18 -20 12 0 -7 5 -13 10
-13 6 0 10 -7 10 -16 0 -10 6 -14 14 -11 8 3 20 -1 27 -9 7 -8 21 -20 31 -25
18 -9 18 -8 8 11 -6 11 -15 18 -20 15 -4 -3 -5 5 -2 17 5 19 7 20 10 5 2 -9 8
-14 14 -11 7 5 8 2 3 -6 -6 -10 -4 -12 8 -7 9 3 19 2 22 -4 4 -5 11 -6 17 -3
7 5 8 2 2 -7 -15 -23 -12 -58 5 -51 9 3 12 1 8 -5 -4 -7 0 -10 10 -8 10 1 27
-5 37 -14 11 -9 16 -10 12 -3 -5 8 0 12 13 12 12 0 21 -5 21 -11 0 -5 -5 -7
-10 -4 -5 3 -10 1 -10 -5 0 -12 36 -5 57 12 13 11 12 -17 -2 -29 -4 -4 -5 -2
0 6 5 10 4 12 -4 7 -16 -10 -4 -26 14 -19 8 3 15 -1 15 -8 0 -7 3 -9 6 -6 4 3
15 2 25 -3 13 -8 20 -6 28 7 6 10 11 12 11 6 0 -7 7 -13 15 -13 8 0 15 -4 15
-10 0 -14 -13 -13 -28 2 -7 7 -12 8 -12 2 0 -6 12 -16 26 -22 14 -7 23 -8 19
-2 -6 9 8 14 28 11 4 0 7 5 7 11 0 8 4 7 10 -3 6 -10 20 -15 35 -14 15 2 23
-1 19 -7 -4 -6 -1 -8 7 -6 8 3 13 11 11 17 -1 8 4 7 18 -1 21 -14 27 -28 10
-28 -5 0 -10 5 -10 11 0 8 -4 8 -14 0 -11 -9 -20 -10 -35 -1 -12 6 -21 7 -21
3 0 -4 -5 -2 -11 4 -9 9 -15 8 -25 -2 -18 -17 -18 -31 -1 -17 13 11 42 11 53
-1 4 -4 16 -7 26 -7 12 0 16 -4 12 -12 -4 -6 -3 -8 4 -4 6 3 13 2 17 -4 3 -5
12 -10 18 -10 7 0 3 6 -8 12 -19 11 -18 12 10 20 20 5 36 3 51 -7 17 -11 24
-12 27 -2 2 6 8 8 13 4 5 -4 2 -12 -6 -17 -8 -6 -13 -10 -10 -11 34 -6 43 -8
48 -14 4 -3 -6 -4 -21 -1 -15 2 -27 1 -27 -3 0 -5 12 -8 26 -8 15 0 31 -7 36
-14 6 -10 7 -6 3 11 -5 20 -4 22 5 8 5 -9 11 -28 12 -41 1 -14 5 -24 9 -22 3
3 16 -5 27 -16 12 -11 22 -15 22 -10 0 6 -9 15 -20 21 -12 6 -17 17 -14 28 5
14 4 15 -5 2 -7 -10 -11 -11 -11 -3 0 7 8 17 19 22 16 9 17 7 13 -14 -2 -15 0
-25 7 -25 7 0 10 4 7 9 -3 4 2 17 10 27 9 10 13 13 9 7 -11 -23 -14 -53 -4
-53 5 0 9 -6 9 -14 0 -21 21 -25 55 -9 l30 14 -24 -19 c-13 -11 -21 -25 -18
-33 4 -9 6 -8 6 5 1 11 4 16 8 13 3 -4 12 -2 19 4 9 7 12 6 10 -5 -1 -9 -6
-19 -11 -23 -4 -4 -5 -2 0 6 5 10 4 12 -4 7 -19 -12 -2 -27 19 -16 24 13 40
12 18 -1 -11 -6 -15 -16 -11 -26 5 -12 3 -14 -8 -8 -8 4 -11 4 -6 0 4 -5 17
-10 28 -12 19 -3 19 -2 4 13 -9 9 -13 19 -10 22 3 4 10 0 14 -7 5 -7 20 -15
34 -16 34 -4 73 -31 55 -38 -10 -4 -10 -6 0 -6 6 -1 14 0 17 2 2 1 12 -8 20
-21 9 -12 21 -20 26 -16 5 3 8 0 7 -8 -2 -7 3 -12 10 -10 8 1 11 -2 7 -9 -5
-7 -15 -3 -31 12 -31 29 -31 17 0 -14 19 -19 27 -22 37 -13 9 8 10 8 5 -1 -4
-7 -2 -13 3 -13 6 0 11 -6 11 -14 0 -8 9 -18 20 -21 11 -3 20 -13 20 -20 0
-19 17 -28 26 -14 5 8 3 9 -6 4 -10 -6 -12 -3 -8 13 4 14 2 20 -4 15 -7 -3 -8
-1 -4 5 4 8 2 10 -7 6 -17 -6 -31 11 -22 27 5 7 16 3 31 -12 13 -12 21 -26 18
-30 -3 -5 2 -9 11 -9 10 0 13 -5 9 -12 -5 -8 -2 -9 10 -5 10 4 15 3 11 -3 -3
-6 -1 -10 6 -10 8 0 7 -5 -2 -17 -8 -9 -9 -14 -2 -10 6 4 13 4 16 0 2 -5 2 -3
1 4 -2 6 3 16 10 22 10 9 17 5 30 -14 9 -14 21 -23 26 -20 5 3 11 1 15 -4 3
-6 12 -8 19 -5 7 3 16 -2 19 -10 4 -10 13 -13 24 -10 15 5 15 4 3 -4 -9 -7
-18 -7 -26 -1 -8 6 -14 5 -17 -5 -4 -9 -1 -18 5 -22 7 -4 8 -3 4 4 -4 7 -3 12
2 12 16 0 22 -13 12 -25 -7 -8 -5 -12 5 -12 8 0 12 4 9 9 -3 4 0 8 5 8 6 0 11
-5 11 -12 0 -6 3 -8 7 -4 5 4 -1 14 -12 22 -18 13 -17 14 19 9 30 -5 37 -4 30
7 -4 7 -3 9 1 5 17 -15 13 -35 -6 -30 -14 4 -19 0 -18 -13 0 -11 3 -14 6 -6 3
8 11 5 24 -10 10 -13 18 -19 19 -14 0 5 7 3 15 -4 8 -7 12 -17 8 -24 -4 -6 2
-4 12 4 17 14 18 13 12 -2 -3 -10 -2 -20 2 -22 5 -3 8 5 7 17 -1 14 -7 21 -16
19 -13 -3 -13 -1 -1 10 11 10 14 10 18 0 3 -7 11 -19 20 -27 10 -11 11 -15 2
-15 -7 0 -10 -3 -6 -6 3 -3 10 -3 16 1 7 4 5 15 -5 33 -11 19 -12 22 -2 10 8
-10 18 -15 21 -12 3 3 4 -9 2 -27 -3 -19 -1 -29 3 -22 7 11 25 16 52 14 11 -1
11 -4 2 -13 -20 -20 -14 -31 12 -24 21 5 24 3 21 -15 -4 -17 -2 -19 11 -9 11
10 12 16 3 27 -7 7 -9 16 -5 20 3 3 6 1 6 -6 0 -7 5 -9 10 -6 6 4 10 3 9 -2
-3 -19 2 -23 21 -13 17 9 19 8 13 -7 -6 -16 -5 -16 9 -5 14 11 18 10 28 -8 9
-17 14 -19 26 -9 8 6 15 8 15 3 1 -5 2 -15 3 -23 0 -8 8 -16 16 -18 13 -4 13
-3 0 6 -11 8 -12 11 -2 11 8 0 10 5 6 13 -6 8 -3 8 9 -2 12 -10 14 -18 7 -31
-16 -30 -12 -34 8 -10 23 28 48 19 31 -11 -10 -19 -9 -19 10 -9 12 6 21 13 21
16 0 3 -5 2 -12 -2 -7 -4 -8 -3 -4 5 4 6 12 9 17 6 5 -4 9 0 9 7 0 8 4 7 11
-4 5 -10 16 -15 24 -12 8 4 15 2 15 -3 0 -12 -33 -13 -41 -1 -3 5 -9 2 -13 -8
-4 -10 -4 -15 0 -11 4 4 13 2 21 -4 10 -9 13 -8 13 2 0 8 6 5 14 -7 12 -16 14
-16 13 -2 -1 9 3 17 8 18 6 1 16 7 24 13 11 9 13 9 8 0 -12 -19 11 -25 23 -6
11 17 11 17 6 1 -3 -10 -9 -25 -12 -33 -5 -11 2 -13 30 -11 20 2 39 0 42 -5 8
-14 24 -10 24 6 0 16 12 20 23 8 4 -3 -1 -16 -10 -27 -15 -17 -15 -19 -1 -8
12 9 18 10 23 2 4 -6 13 -9 21 -6 7 3 16 1 19 -4 9 -14 40 -4 39 13 -1 13 3
14 22 5 13 -6 21 -15 18 -19 -3 -5 0 -9 6 -9 6 0 8 -6 4 -12 -6 -10 -4 -10 7
0 7 6 25 12 41 12 17 0 26 -5 24 -12 -1 -7 -1 -10 1 -5 3 4 9 7 14 7 6 0 8 -4
5 -9 -3 -4 6 -6 19 -3 14 2 25 0 25 -6 0 -8 14 -9 38 -3 1 1 -2 10 -8 21 -6
11 -8 20 -6 20 3 0 12 -13 21 -30 16 -31 40 -32 50 -1 7 25 34 23 27 -2 -4
-14 -7 -16 -13 -5 -6 9 -8 7 -7 -8 1 -11 8 -21 14 -21 7 0 12 3 12 6 -2 12 14
41 23 41 6 0 5 -9 -1 -21 -7 -11 -9 -23 -6 -27 3 -3 6 -1 6 4 0 5 13 10 30 10
16 1 28 -1 25 -5 -5 -10 117 -8 132 2 6 4 14 3 18 -3 3 -5 1 -10 -6 -10 -7 0
-9 -3 -6 -6 4 -4 12 -2 19 3 7 6 21 9 31 8 9 -2 15 1 11 6 -3 5 4 8 15 6 26
-4 40 -17 18 -17 -10 0 -17 -5 -17 -10 0 -7 8 -6 23 2 30 17 39 17 60 -1 16
-13 18 -13 15 -1 -2 10 3 14 16 12 11 -2 15 1 11 7 -3 6 1 11 10 11 9 0 14 -4
11 -8 -2 -4 4 -9 15 -9 13 -1 19 5 19 20 0 12 4 18 8 12 9 -13 49 -35 62 -35
5 0 10 5 10 10 0 6 -3 9 -7 9 -18 -3 -33 2 -33 9 0 5 12 8 28 7 15 -1 26 -7
24 -14 -1 -7 2 -10 8 -6 5 3 16 3 23 -2 18 -11 77 -13 77 -2 0 6 5 7 12 3 7
-5 8 -3 3 6 -6 9 -4 11 4 6 7 -5 10 -15 7 -23 -4 -8 -1 -11 5 -7 6 3 8 18 5
33 -3 14 -3 20 0 13 3 -6 11 -9 16 -6 6 4 8 3 5 -2 -3 -6 3 -16 15 -23 11 -7
17 -8 14 -3 -4 7 8 9 31 7 21 -2 38 -4 38 -5 0 -1 8 -3 18 -5 9 -2 15 1 11 6
-3 5 0 9 7 9 7 0 9 3 6 6 -4 4 -14 1 -23 -7 -16 -13 -16 -12 -4 7 18 29 39 27
34 -3 -3 -15 -1 -22 6 -18 5 3 10 15 10 26 0 10 3 20 8 20 33 6 52 5 52 -2 0
-5 -4 -9 -9 -9 -11 0 -8 -26 4 -37 4 -4 6 -3 2 2 -3 6 1 21 10 35 8 14 12 18
10 9 -3 -9 -1 -22 4 -30 7 -11 9 -11 9 -1 0 7 5 10 11 6 8 -4 8 -1 1 12 -7 14
-6 23 5 33 13 12 14 11 8 -8 -6 -21 -5 -22 14 -12 12 7 21 14 21 17 0 3 -6 2
-12 -2 -8 -4 -8 -2 1 7 10 11 15 11 18 2 7 -19 20 -16 26 7 4 14 10 18 23 13
12 -5 15 -3 9 6 -6 10 -3 11 11 3 11 -5 25 -7 33 -4 9 3 11 0 6 -8 -5 -9 -4
-11 3 -6 9 5 7 16 -5 39 -12 25 -13 29 -2 20 16 -13 44 -2 44 17 0 5 3 9 6 8
3 -2 13 3 21 9 12 10 15 10 15 -2 0 -8 -5 -11 -10 -8 -6 3 -7 1 -3 -5 11 -19
33 -2 31 23 -2 18 1 22 13 18 11 -5 13 -3 7 8 -7 12 -6 12 7 1 10 -8 19 -9 22
-3 3 5 1 11 -6 13 -7 3 -5 7 6 11 11 4 15 3 10 -4 -7 -12 62 -7 74 6 3 3 -9 4
-28 1 l-35 -5 28 13 c15 7 24 16 20 21 -5 5 -1 4 7 -2 10 -7 21 -8 30 -3 8 5
18 6 24 3 5 -3 6 -1 2 5 -4 7 -2 12 5 12 7 0 9 3 6 6 -4 4 -19 -1 -34 -11 -15
-10 -23 -12 -16 -5 6 7 10 18 9 24 -2 6 -1 8 1 4 8 -14 23 -8 23 8 0 14 1 14
16 0 8 -9 20 -16 25 -16 6 0 3 7 -5 16 -9 8 -16 21 -16 27 0 9 2 9 8 0 12 -19
71 -13 77 9 4 10 11 18 16 18 6 0 7 -4 4 -10 -3 -5 -1 -10 4 -10 6 0 11 4 11
9 0 13 -26 32 -34 24 -4 -4 -4 1 0 12 5 11 9 14 12 7 2 -7 9 -9 14 -6 6 4 8 2
5 -3 -7 -11 22 -28 31 -18 3 3 0 5 -6 5 -7 0 -12 5 -12 10 0 7 6 7 20 0 16 -9
18 -8 14 5 -4 8 -10 15 -15 15 -5 0 -9 4 -9 8 0 15 34 10 55 -7 19 -16 19 -16
2 12 -10 15 -13 27 -7 27 5 0 10 -5 10 -11 0 -8 4 -9 13 0 8 6 18 7 22 3 5 -4
5 1 2 10 -5 13 -2 15 11 11 15 -6 16 -5 2 13 -14 18 -14 18 3 5 15 -12 20 -12
26 -2 5 7 12 13 17 13 5 0 8 4 6 9 -1 5 3 9 9 9 6 0 9 -7 5 -15 -4 -12 1 -14
27 -9 18 3 37 7 44 7 8 0 7 7 -3 22 -13 21 -13 21 15 17 22 -3 32 1 40 16 6
11 7 22 4 26 -3 3 -4 6 0 6 3 0 13 -7 21 -16 15 -14 16 -14 16 0 0 16 15 22
23 9 2 -5 3 -3 1 3 -3 15 35 56 46 49 5 -3 11 -1 14 4 4 5 1 13 -5 17 -7 4 -9
3 -6 -2 3 -6 -3 -11 -14 -11 -10 -1 -19 3 -19 8 0 6 4 8 9 4 5 -3 12 -1 16 5
4 7 13 7 26 0 11 -6 17 -15 14 -20 -3 -5 -1 -11 4 -14 4 -3 8 4 7 17 -1 14 5
22 16 22 9 0 20 4 25 9 4 5 3 6 -4 2 -16 -9 -18 30 -3 39 6 4 8 11 4 16 -3 5
-2 9 3 8 20 -4 27 2 13 12 -13 9 -12 10 3 5 12 -4 17 0 17 12 0 12 4 10 13 -8
14 -26 12 -44 -2 -21 -5 8 -11 9 -15 3 -7 -11 21 -25 35 -16 5 3 7 10 4 15 -4
5 1 12 9 15 9 3 16 11 16 17 0 5 -10 2 -22 -9 -14 -12 -18 -13 -10 -3 6 9 8
19 4 23 -4 4 -2 7 3 6 22 -5 29 1 15 11 -12 8 -11 9 6 5 14 -5 30 3 51 23 17
16 34 27 37 24 3 -4 6 0 6 8 0 9 3 10 8 3 11 -17 49 -26 57 -15 4 7 -1 8 -11
4 -12 -4 -15 -3 -10 5 4 8 -1 15 -15 20 l-23 9 22 5 c14 4 20 2 15 -5 -4 -7 0
-8 11 -4 9 4 15 3 12 -2 -3 -5 0 -11 7 -14 8 -3 12 6 11 28 -1 18 2 38 7 46 5
9 7 -1 6 -25 -1 -25 3 -40 11 -42 7 -1 8 0 2 3 -16 8 -12 26 5 20 8 -4 17 -1
21 5 4 6 3 8 -3 5 -17 -11 -23 19 -8 40 8 10 15 14 15 10 0 -4 9 -3 20 3 12 6
18 16 14 23 -5 9 -4 9 6 0 7 -6 19 -9 26 -6 10 4 13 0 8 -13 -5 -18 -5 -18 6
0 8 12 9 21 2 25 -6 4 -5 11 4 19 9 8 14 9 14 2 0 -6 5 -8 10 -5 6 4 8 10 5
15 -3 5 3 7 14 5 17 -3 19 1 16 26 -2 16 0 27 5 24 5 -3 7 -12 4 -19 -3 -8 -1
-17 5 -20 6 -4 8 -13 4 -21 -3 -8 0 -15 7 -15 6 0 8 5 5 10 -3 6 0 10 7 10 10
0 11 2 0 8 -14 9 -6 42 10 42 6 0 5 -6 -2 -15 -11 -13 -9 -15 11 -12 13 2 23
7 22 10 -2 4 -3 11 -3 16 0 5 -6 11 -12 14 -7 2 -2 2 11 0 22 -4 23 -3 11 14
-11 13 -11 15 -1 6 16 -13 44 -6 34 10 -3 6 -1 7 6 3 6 -4 9 -11 6 -16 -3 -5
4 -7 17 -5 12 3 26 -1 31 -8 6 -9 7 -8 4 3 -2 8 -11 14 -19 14 -10 -1 -14 5
-11 17 4 16 7 16 19 4 13 -13 44 -11 44 2 0 3 -6 3 -14 0 -8 -3 -17 1 -20 9
-9 23 -7 31 3 15 6 -10 17 -11 37 -6 47 14 59 11 56 -10 -2 -16 -1 -17 7 -5 6
9 6 19 1 26 -6 6 -6 15 -2 20 4 4 0 3 -9 -4 -14 -10 -18 -10 -22 2 -4 11 -1
13 11 9 15 -6 16 -5 2 13 -14 18 -14 18 5 3 11 -9 27 -14 35 -12 12 4 13 3 1
-5 -15 -11 -7 -32 12 -31 8 0 8 2 -1 6 -20 8 6 33 26 26 9 -3 14 -3 10 1 -6 7
-27 13 -53 15 -5 1 -3 5 5 11 9 6 19 5 29 -3 12 -10 13 -8 7 13 -5 19 -2 17
14 -10 16 -27 19 -29 14 -10 -6 23 -6 24 11 10 17 -14 17 -14 5 7 -8 12 -19
19 -25 16 -5 -4 1 6 14 20 25 27 37 35 26 17 -3 -6 4 -9 19 -8 13 1 22 6 19
11 -3 4 3 18 14 29 10 12 12 18 6 14 -18 -10 -17 19 1 33 8 7 16 8 18 4 3 -4
4 -3 2 4 -1 6 6 19 16 28 13 12 18 29 17 55 -2 24 1 36 9 33 6 -2 10 -15 8
-29 -1 -13 2 -22 6 -19 5 3 7 12 4 19 -3 8 5 21 17 30 19 13 21 18 10 28 -11
11 -12 10 -6 -1 6 -10 4 -12 -5 -6 -9 6 -11 4 -5 -5 6 -9 4 -11 -5 -5 -9 6
-11 4 -5 -5 5 -8 4 -11 -3 -6 -6 4 -9 13 -5 21 5 15 9 17 36 19 6 1 18 8 25
16 12 13 13 12 8 -5 -5 -18 -5 -18 6 -4 7 9 19 15 26 13 7 -1 8 0 2 3 -16 7
-12 26 4 20 11 -4 13 -1 9 11 -6 15 -5 16 13 2 18 -14 18 -14 5 3 -13 16 -15
16 -32 1 -11 -10 -19 -13 -19 -7 0 5 11 16 25 23 22 12 27 11 41 -6 15 -18 15
-18 5 2 -13 28 -2 39 16 16 8 -9 12 -11 8 -4 -4 7 -1 19 5 27 7 8 9 15 6 15
-4 0 -2 8 3 18 7 13 6 23 -1 30 -9 9 -9 12 0 12 11 0 16 -13 13 -32 0 -5 4 -8
10 -8 6 0 9 6 6 14 -3 7 1 23 9 35 8 12 12 25 9 31 -3 5 5 20 17 32 13 13 21
29 20 37 -3 12 -1 13 11 2 11 -8 17 -9 22 -1 4 6 3 10 -2 9 -20 -4 -24 2 -12
18 10 11 10 14 2 9 -7 -4 -13 -2 -13 3 0 6 5 11 10 11 6 0 10 5 10 11 0 8 -5
7 -15 -1 -9 -7 -14 -19 -11 -26 3 -7 1 -16 -5 -20 -6 -3 -8 -13 -4 -22 3 -9 3
-13 -1 -9 -4 4 -13 2 -20 -4 -8 -7 -14 -6 -20 2 -4 7 -3 9 3 6 14 -9 39 32 37
61 -1 12 1 20 4 17 3 -3 12 5 20 16 12 18 12 23 1 29 -7 5 -16 7 -20 4 -4 -2
-10 0 -14 5 -7 13 33 5 50 -9 10 -8 13 -6 11 7 0 10 4 17 10 16 7 -1 10 12 9
37 -2 22 1 37 6 34 5 -3 6 2 3 10 -3 9 -11 16 -17 16 -6 0 -7 -3 -4 -6 3 -4 2
-16 -4 -27 -8 -14 -8 -18 0 -13 7 5 10 -1 8 -14 -4 -23 -26 -42 -39 -34 -5 3
-6 10 -2 15 3 5 10 7 15 4 5 -4 9 1 9 10 0 9 -5 13 -11 9 -6 -3 -3 5 6 20 14
20 14 26 4 26 -9 1 -8 4 4 11 13 8 15 14 7 29 -7 13 -7 21 0 25 6 4 7 11 4 17
-4 6 -2 8 3 5 6 -4 14 0 17 9 5 14 9 14 23 3 15 -13 15 -12 2 8 -9 15 -17 19
-23 13 -6 -6 -15 -10 -20 -10 -6 0 0 7 12 16 12 8 27 12 33 8 7 -4 10 -1 7 7
-3 8 1 29 8 48 8 19 12 36 9 39 -3 3 -5 -1 -5 -8 0 -7 -3 -11 -6 -8 -3 4 -1
16 6 27 6 12 7 21 1 21 -5 0 -12 -6 -14 -12 -4 -10 -6 -10 -6 -1 -1 18 36 36
45 21 4 -6 3 -8 -4 -4 -12 7 -10 -20 3 -31 4 -4 5 -2 1 5 -4 6 -3 12 2 12 6 0
13 8 16 17 4 10 4 14 0 11 -3 -4 -13 0 -21 8 -8 8 -19 12 -24 9 -5 -4 -9 -1
-9 5 0 7 8 9 22 4 19 -6 21 -4 13 8 -6 7 -1 5 9 -7 19 -20 19 -20 11 0 -4 11
-8 26 -8 33 0 7 -7 11 -16 7 -13 -4 -13 -2 1 8 10 8 14 18 10 22 -4 5 -1 5 6
1 18 -11 15 5 -5 21 -16 12 -14 12 9 2 20 -9 25 -15 18 -24 -8 -9 -6 -14 4
-18 9 -4 18 -1 22 5 4 7 3 8 -4 4 -8 -5 -11 0 -9 14 2 12 10 26 18 31 11 7 12
9 0 9 -11 0 -11 3 -1 15 7 8 9 15 4 15 -5 0 -1 5 9 11 9 5 17 15 17 20 0 6 -7
4 -15 -5 -9 -8 -14 -18 -13 -21 2 -4 -5 -11 -14 -16 -10 -6 -18 -15 -18 -20 0
-6 5 -7 12 -3 7 5 8 3 3 -5 -5 -8 -11 -9 -17 -3 -11 11 8 51 30 65 16 10 16
27 0 23 -7 -1 -10 -1 -5 1 4 3 4 10 1 15 -4 6 -3 8 2 5 6 -3 16 -2 24 3 9 5
19 5 27 -2 9 -7 13 -7 13 1 0 10 -13 15 -32 13 -3 -1 -8 5 -11 12 -4 9 2 11
21 8 l26 -5 -22 23 c-23 25 -21 40 6 39 14 0 14 -2 -2 -8 -16 -6 -17 -9 -5
-16 8 -5 20 -10 27 -11 10 -2 11 1 1 12 -6 8 -8 14 -4 14 4 0 1 8 -6 17 -12
15 -12 16 4 10 9 -3 17 -2 17 2 0 15 -27 20 -41 8 -11 -10 -11 -9 0 5 7 10 18
15 24 11 7 -4 8 1 4 13 -7 18 -6 18 9 -1 16 -19 16 -19 9 5 -7 22 -6 23 8 12
12 -10 17 -10 23 -1 4 7 3 9 -4 5 -6 -3 -13 -2 -16 3 -7 11 -24 9 -46 -4 -9
-5 -7 1 5 14 18 21 23 40 27 104 1 15 5 27 8 27 10 0 8 34 -3 41 -6 4 -5 14 3
25 9 15 10 15 6 2 -7 -25 18 -42 34 -23 11 13 11 16 -1 13 -9 -2 -13 5 -12 20
2 13 -1 21 -6 17 -17 -10 -24 18 -8 30 9 7 15 14 12 16 -9 10 -13 59 -4 54 5
-4 6 -11 3 -17 -5 -7 -2 -8 6 -3 10 6 12 4 7 -8 -3 -9 -3 -19 2 -21 12 -8 9
27 -4 47 -17 25 -8 58 13 49 14 -5 15 -4 2 10 -8 9 -19 13 -25 10 -5 -2 -4 1
3 9 15 16 16 33 0 23 -7 -4 -8 -3 -4 5 6 9 11 9 21 1 9 -7 16 -6 26 7 13 16
12 17 -3 4 -16 -12 -18 -11 -18 4 0 11 -5 15 -15 12 -8 -4 -17 -2 -19 2 -3 5
10 8 29 8 38 -1 54 15 18 18 -13 1 -26 5 -30 10 -5 4 0 5 9 2 10 -3 20 -2 23
3 4 6 2 10 -2 10 -5 0 -14 10 -22 23 -14 22 -13 22 7 4 15 -14 22 -15 28 -6 4
8 3 10 -5 5 -8 -5 -10 0 -7 18 3 15 1 24 -5 21 -5 -4 -6 -11 -3 -17 4 -7 2 -8
-5 -4 -7 5 -8 13 -2 23 6 11 4 31 -5 56 -8 22 -14 45 -14 53 0 7 -5 25 -12 41
-6 15 -12 33 -14 40 -3 15 -33 112 -41 133 -4 8 -7 28 -9 45 -1 16 -7 31 -13
33 -6 2 -9 7 -6 12 3 4 0 22 -6 39 -10 27 -13 30 -28 19 -14 -11 -14 -11 -3 3
11 14 8 24 -16 60 -30 46 -69 138 -77 179 -2 14 -7 43 -9 65 -3 22 -10 41 -16
43 -8 3 -7 8 1 18 7 8 14 36 16 62 6 85 57 210 115 285 16 20 26 37 21 37 -4
0 0 5 10 11 22 13 22 30 0 23 -10 -2 -8 1 5 7 12 7 22 16 22 21 0 5 -4 6 -10
3 -6 -3 -7 1 -4 9 3 9 9 16 13 16 4 0 7 8 8 18 1 9 3 24 5 32 2 8 -3 14 -10
12 -8 -1 -11 2 -7 8 3 6 11 7 17 4 7 -5 9 2 6 20 -4 19 -2 24 6 17 9 -7 13 -1
14 24 2 18 9 55 17 82 8 26 15 58 15 70 0 12 5 34 12 50 14 35 15 38 16 90 1
29 6 42 15 40 7 -1 12 8 12 22 0 14 6 26 13 29 6 2 12 11 12 20 0 13 3 12 15
-4 14 -19 14 -19 11 1 -4 19 2 20 99 20 67 0 101 -3 97 -10 -3 -5 2 -4 11 4 9
7 14 18 10 24 -4 6 0 8 10 4 12 -4 17 -1 17 9 0 15 -2 15 -24 1 -20 -13 -25
-14 -37 -2 -9 9 -48 17 -103 21 -87 7 -88 7 -65 24 21 17 22 18 3 23 -16 4
-16 5 -1 6 9 0 17 8 17 16 0 9 6 15 13 14 23 -3 37 1 37 11 0 5 -7 7 -15 4
-26 -10 -38 7 -13 20 15 7 25 24 29 46 4 19 7 29 8 22 2 -22 26 8 27 34 1 13
5 32 9 42 5 9 9 24 9 32 1 8 9 14 19 14 9 -1 17 2 17 7 0 5 -4 9 -10 9 -5 0
-10 5 -10 10 0 6 7 10 16 10 9 0 14 7 12 18 -1 9 1 23 5 30 5 6 5 12 1 12 -4
0 0 8 8 18 9 9 18 26 20 37 2 11 10 19 17 17 7 -1 11 5 9 15 -2 11 2 17 10 15
10 -2 10 2 1 19 -10 19 -9 21 5 16 11 -4 16 -1 17 11 1 9 2 22 4 27 1 6 3 16
3 23 1 7 6 11 11 8 4 -3 7 10 5 29 -1 20 1 33 5 30 5 -2 6 7 3 20 -4 24 16 95
46 165 14 31 20 64 25 138 0 12 4 22 8 22 4 0 10 7 13 16 3 8 2 13 -3 10 -5
-3 -11 4 -14 15 -4 13 -1 19 6 16 9 -3 13 19 14 75 1 44 6 85 11 91 5 7 12 28
16 47 3 19 9 46 12 60 3 14 7 57 10 95 4 60 18 125 41 185 3 8 7 34 8 58 1 28
8 47 21 57 16 12 17 16 5 24 -12 8 -12 12 -2 24 13 16 12 87 -1 87 -5 0 -4 9
2 19 6 12 6 22 1 25 -5 3 -7 15 -4 26 3 11 1 20 -5 20 -5 0 -12 15 -14 34 -3
28 0 36 17 41 19 6 19 7 1 14 -16 6 -17 9 -3 22 18 18 5 49 -20 49 -16 0 -16
1 0 13 20 15 34 67 17 67 -6 0 -8 4 -5 10 3 5 -6 12 -19 16 -21 5 -24 9 -15
25 5 10 6 19 2 19 -4 0 -2 4 6 9 16 10 6 31 -15 31 -8 0 -13 4 -10 9 8 13 -4
42 -15 35 -5 -3 -9 6 -9 20 0 18 -5 26 -18 26 -23 0 -42 19 -42 43 0 10 -5 15
-11 12 -6 -4 -8 -13 -5 -21 3 -8 -1 -14 -9 -14 -8 0 -15 4 -15 10 0 6 -9 6
-26 0 -34 -13 -35 -13 -32 8 2 9 -3 17 -12 18 -8 0 -30 4 -47 8 -18 4 -38 4
-44 0 -21 -13 -219 -25 -219 -13 0 18 -43 3 -53 -18 -11 -24 -27 -31 -27 -12
0 6 -7 9 -15 5 -8 -3 -19 2 -24 12 -9 15 -12 15 -34 -6 -13 -12 -27 -19 -30
-15 -4 3 -7 -1 -7 -11 0 -10 -5 -14 -11 -11 -5 4 -18 0 -28 -9 -21 -19 -81
-28 -98 -14 -9 7 -13 7 -13 0 0 -6 -20 -21 -45 -33 -25 -12 -45 -25 -45 -29 0
-4 -6 -7 -12 -7 -7 0 -24 -3 -37 -7 -16 -6 -21 -5 -17 3 15 24 -32 10 -58 -18
-18 -19 -34 -27 -47 -24 -11 3 -19 0 -19 -7 0 -6 -6 -10 -12 -8 -15 5 -31 -9
-41 -34 -3 -10 -12 -18 -20 -18 -7 0 -23 -13 -35 -30 -12 -16 -28 -27 -35 -25
-6 3 -28 -10 -49 -27 -67 -60 -92 -78 -110 -78 -10 0 -18 -3 -18 -8 0 -14 -59
-72 -74 -72 -17 0 -56 -46 -56 -66 0 -8 -6 -14 -13 -14 -7 0 -17 -10 -22 -22
-6 -14 -24 -26 -47 -31 -22 -5 -38 -15 -38 -23 0 -8 -4 -14 -9 -14 -17 0 -81
-64 -81 -81 0 -22 -55 -69 -81 -69 -10 0 -19 -4 -19 -10 0 -5 -7 -10 -16 -10
-8 0 -12 -4 -9 -10 3 -5 -5 -15 -19 -22 -14 -6 -34 -28 -43 -49 -10 -21 -24
-39 -30 -39 -7 0 -13 -4 -13 -10 0 -5 -6 -7 -14 -4 -11 4 -13 0 -9 -16 5 -20
3 -22 -23 -16 -24 5 -35 2 -54 -19 -13 -14 -18 -25 -12 -25 7 0 12 -5 12 -11
0 -5 -4 -7 -10 -4 -5 3 -19 0 -31 -8 l-21 -15 21 -7 c12 -3 21 -11 21 -16 0
-6 -6 -7 -12 -2 -19 11 -39 13 -32 2 3 -5 -8 -28 -25 -51 -30 -41 -43 -74 -19
-50 7 7 16 12 22 12 5 0 2 -6 -9 -13 -10 -8 -15 -19 -11 -25 3 -6 1 -14 -5
-18 -7 -4 -9 -3 -6 2 3 6 2 16 -4 24 -8 14 -11 7 -8 -17 0 -3 -6 -10 -15 -15
-8 -5 -14 -14 -12 -21 1 -6 1 -9 -1 -4 -3 4 -9 7 -14 7 -6 0 -7 -4 -4 -10 3
-5 -3 -17 -14 -27 -11 -9 -17 -21 -14 -26 3 -6 1 -7 -5 -3 -6 3 -12 1 -15 -6
-2 -7 -3 -6 -2 3 3 21 -26 19 -49 -3 -9 -10 -17 -20 -16 -23 1 -25 -1 -29 -11
-15 -9 12 -10 12 -5 -3 3 -10 1 -27 -5 -38 -8 -16 -13 -18 -25 -8 -8 6 -14 8
-14 4 0 -4 -8 -1 -17 6 -16 13 -17 12 -5 -3 21 -27 -1 -60 -36 -52 -25 5 -26
4 -9 -9 16 -13 16 -15 2 -21 -9 -3 -13 -2 -10 4 5 9 -9 14 -18 8 -2 -2 -11 3
-20 10 -11 9 -17 10 -22 2 -5 -8 -12 -7 -23 2 -15 11 -15 11 -4 -4 15 -18 2
-31 -21 -22 -8 3 -18 1 -21 -4 -3 -5 2 -9 11 -8 22 2 26 -16 8 -39 -16 -19
-16 -19 -5 3 7 15 7 22 0 22 -5 0 -10 -6 -10 -12 -1 -7 -7 -2 -16 12 -15 25
-15 25 -8 1 5 -18 3 -22 -7 -15 -21 13 -59 13 -52 0 10 -16 11 -46 1 -40 -4 3
-8 1 -8 -4 0 -6 -7 -13 -16 -16 -13 -5 -14 -4 -6 7 7 8 9 17 5 20 -9 10 -25 9
-19 -1 2 -4 1 -14 -3 -21 -6 -10 -10 -9 -14 4 -4 9 -3 14 1 11 4 -2 8 4 8 14
0 18 -19 21 -33 5 -4 -4 -2 -5 5 -1 18 10 14 -5 -7 -34 -19 -23 -20 -24 -39
-7 -21 19 -33 14 -26 -11 3 -10 -2 -6 -11 8 -9 14 -14 17 -11 8 6 -21 -5 -23
-22 -6 -7 7 -12 8 -12 2 0 -5 -4 -4 -8 3 -5 9 -12 6 -21 -10 -13 -20 -13 -21
2 -8 10 7 17 9 17 3 0 -15 -26 -22 -39 -9 -6 6 -11 7 -11 1 0 -5 -5 -2 -11 6
-8 12 -9 10 -4 -7 8 -30 -10 -37 -34 -12 -20 21 -24 8 -7 -21 7 -12 6 -13 -5
-2 -7 6 -20 12 -29 12 -13 0 -13 -1 0 -10 9 -6 10 -10 3 -10 -6 0 -15 5 -19
11 -4 8 -9 7 -16 -2 -8 -11 -9 -11 -5 1 2 8 9 16 15 16 7 1 16 2 20 3 5 0 9 8
9 16 0 8 -4 15 -9 15 -4 0 -8 -7 -8 -15 0 -8 -3 -14 -7 -14 -5 1 -10 0 -13 -1
-21 -8 -40 -6 -41 3 0 7 -7 -1 -15 -18 l-15 -30 6 30 c3 17 2 26 -2 20 -11
-14 -33 -17 -33 -5 0 6 -5 10 -11 10 -8 0 -8 -5 1 -15 7 -8 16 -13 19 -10 4 2
8 -2 8 -10 0 -12 -4 -12 -21 1 -22 15 -40 19 -32 6 2 -4 0 -14 -5 -22 -7 -12
-8 -11 -6 5 1 11 5 25 9 30 3 6 -6 10 -22 10 -16 1 -27 -2 -24 -6 2 -4 -1 -9
-8 -11 -7 -3 -5 -7 6 -11 9 -4 15 -3 11 2 -3 5 -1 12 5 16 5 3 10 -3 10 -14 0
-24 -1 -25 -34 -9 -20 9 -23 14 -15 25 7 8 8 13 1 13 -14 0 -23 -28 -12 -35 6
-4 10 -12 9 -18 0 -8 -2 -8 -6 1 -4 10 -8 10 -21 0 -15 -12 -16 -11 -3 5 10
13 10 17 1 17 -10 0 -10 3 0 15 11 13 10 14 -4 9 -10 -4 -15 -12 -12 -19 2 -6
0 -18 -5 -26 -6 -9 -9 -10 -9 -2 0 8 -7 10 -17 6 -17 -7 -17 -6 0 11 19 19 16
31 -13 46 -14 7 -18 6 -16 -5 1 -8 6 -18 11 -22 4 -4 5 -2 1 5 -8 14 10 17 19
2 13 -22 -28 -23 -46 -2 -9 12 -20 22 -24 22 -4 0 -2 -7 5 -15 17 -21 3 -19
-29 4 -27 19 -27 19 -28 -2 0 -12 1 -16 4 -10 3 9 10 9 28 -3 13 -9 30 -12 37
-8 11 6 11 4 0 -7 -11 -11 -16 -11 -34 0 -17 10 -23 11 -26 2 -3 -8 -8 -7 -16
4 -13 18 -50 10 -39 -9 3 -6 -2 -4 -13 5 -10 9 -27 15 -37 14 -9 -2 -15 1 -11
6 3 5 10 6 16 3 6 -4 6 0 -1 13 -6 11 -7 23 -4 27 3 3 1 6 -6 6 -7 0 -10 -7
-7 -18 4 -11 -2 -22 -15 -30 -12 -8 -18 -9 -14 -3 9 15 -8 14 -24 -1 -10 -11
-12 -10 -9 1 2 7 -3 16 -11 19 -8 3 -11 0 -7 -7 5 -7 1 -9 -8 -5 -9 3 -16 10
-16 16 0 5 3 7 8 4 4 -2 16 2 27 10 16 12 17 14 2 14 -9 0 -17 -4 -17 -8 0 -4
-10 -8 -21 -9 -17 -2 -19 1 -10 10 6 6 11 15 11 21 0 5 -6 1 -14 -10 -11 -15
-12 -22 -3 -33 9 -11 9 -13 0 -8 -6 4 -14 1 -16 -5 -4 -10 -6 -10 -6 0 -1 7
-6 10 -13 6 -6 -4 -4 3 5 17 9 13 17 28 17 34 0 5 -5 2 -11 -8 -6 -9 -15 -15
-20 -12 -5 4 -7 11 -4 16 4 5 1 9 -4 9 -14 0 -14 -27 0 -32 6 -2 0 -12 -13
-23 -20 -18 -21 -18 -8 -1 13 16 12 20 -3 31 -9 6 -13 16 -9 20 4 5 2 5 -5 2
-6 -4 -13 -4 -16 0 -2 5 -2 2 -1 -4 5 -18 -6 -16 -23 5 -13 15 -13 15 -4 -4 6
-12 7 -24 4 -28 -3 -3 -1 -6 5 -6 6 0 14 5 17 10 8 13 25 3 24 -13 0 -8 -2 -8
-6 1 -4 10 -8 10 -20 1 -11 -10 -18 -8 -36 11 -12 12 -16 19 -9 15 11 -6 11
-3 1 13 -13 21 -40 23 -47 3 -3 -9 2 -11 18 -6 15 5 20 4 16 -4 -16 -26 -64 0
-58 31 1 4 -5 5 -14 1 -13 -5 -13 -8 -2 -15 9 -7 8 -8 -7 -5 -11 2 -19 9 -18
15 2 7 -3 11 -10 9 -6 -1 -11 4 -9 11 1 8 -2 11 -8 7 -8 -5 -7 -12 4 -24 11
-12 12 -20 5 -31 -9 -13 -10 -13 -6 1 4 14 -3 16 -44 14 -27 -1 -49 2 -49 8 0
5 7 6 16 3 8 -3 13 -2 10 2 -3 5 1 9 9 9 8 0 12 -3 10 -7 -2 -3 6 -7 17 -7 20
-2 20 -1 2 12 -10 7 -22 11 -25 9 -4 -2 -12 3 -19 11 -10 12 -16 10 -40 -15
l-28 -29 3 35 c2 21 0 32 -6 28 -6 -3 -8 -12 -5 -19 2 -7 -2 -21 -9 -32 -13
-17 -14 -17 -12 4 0 12 5 19 11 16 5 -3 6 -1 2 5 -10 17 -38 2 -32 -17 5 -13
3 -12 -8 2 -9 11 -16 14 -19 7 -3 -6 -4 -5 -3 2 2 7 8 13 14 13 5 0 13 3 16 8
3 4 3 5 -1 2 -3 -3 -13 1 -21 8 -13 9 -14 9 -8 0 4 -7 3 -13 -1 -13 -5 0 -15
6 -22 13 -11 10 -13 10 -7 0 5 -8 1 -13 -9 -13 -9 0 -13 4 -10 10 4 6 -1 7
-11 3 -13 -5 -15 -3 -9 7 6 9 4 11 -4 6 -7 -5 -18 0 -27 10 -14 18 -14 18 -7
0 5 -14 3 -17 -7 -11 -9 5 -11 4 -6 -3 4 -7 2 -12 -4 -12 -6 0 -9 -4 -5 -9 3
-5 1 -13 -5 -16 -6 -4 -9 -1 -8 7 2 7 -4 11 -12 9 -44 -11 -56 -8 -58 12 -1
17 1 19 8 7 9 -13 10 -13 10 0 -1 8 -13 24 -28 34 l-27 20 19 -22 c11 -12 16
-22 13 -22 -14 0 -57 24 -57 32 0 5 -6 8 -12 7 -25 -3 -39 1 -34 10 9 14 -22
7 -37 -9 -9 -10 -9 -11 1 -6 6 4 12 3 12 -2 0 -6 -6 -12 -14 -15 -10 -4 -13 0
-10 14 2 10 6 28 8 39 3 11 1 22 -4 25 -5 3 -7 -3 -5 -14 2 -11 -3 -25 -12
-32 -12 -11 -14 -10 -11 6 1 10 -3 20 -10 23 -8 2 -12 -2 -10 -13 2 -10 -4
-20 -12 -22 -13 -4 -13 -3 0 6 9 7 11 11 3 11 -7 0 -11 11 -10 27 1 16 -4 28
-13 30 -13 4 -13 3 0 -6 10 -7 11 -11 3 -11 -7 0 -13 -5 -13 -11 0 -5 5 -7 12
-3 7 4 8 3 4 -5 -6 -9 -11 -9 -22 0 -13 11 -18 6 -15 -14 1 -5 -3 -6 -9 -2 -6
3 -8 10 -5 15 3 5 1 11 -5 15 -6 4 -8 10 -5 15 3 4 -2 10 -10 13 -8 4 -12 15
-10 26 2 14 -1 18 -11 14 -8 -3 -14 -9 -14 -15 0 -5 4 -7 8 -4 11 6 9 -31 -2
-41 -4 -5 -7 -3 -6 2 1 6 2 17 1 25 -1 13 -2 13 -12 0 -8 -12 -9 -10 -4 8 4
13 2 22 -5 22 -6 0 -8 4 -5 10 4 6 -1 7 -11 3 -13 -5 -15 -3 -9 7 5 9 4 11 -3
6 -7 -4 -12 -2 -12 3 0 6 -4 11 -8 11 -18 0 -7 -29 15 -39 24 -11 30 -26 13
-36 -5 -3 -7 0 -4 8 3 8 -6 18 -21 25 -14 7 -23 17 -20 22 3 6 -4 14 -16 18
l-23 9 22 5 c12 4 20 3 18 -1 -6 -10 42 -6 51 4 5 4 3 5 -3 2 -6 -3 -22 0 -36
7 -20 11 -29 11 -38 2 -10 -8 -11 -5 -5 14 7 22 6 23 -9 11 -9 -8 -20 -10 -24
-6 -4 4 -1 10 6 12 6 3 12 9 12 14 0 6 -4 7 -10 4 -5 -3 -10 -2 -10 2 0 5 5
14 10 21 7 9 7 9 -2 2 -12 -10 -72 26 -63 39 2 5 -7 19 -20 31 -25 24 -34 47
-13 34 7 -4 8 -3 4 5 -6 9 -11 9 -22 0 -13 -11 -18 -6 -15 14 1 5 -3 6 -9 2
-5 -3 -11 -1 -11 4 -3 21 -4 26 -12 39 -5 7 -4 12 3 12 6 0 8 5 4 11 -5 8 -9
8 -14 -1 -5 -8 -9 -8 -13 4 -3 8 -3 17 1 19 4 2 2 2 -5 1 -7 -2 -15 1 -18 6
-4 6 0 10 7 10 8 0 6 5 -5 11 -9 6 -15 15 -12 20 4 5 11 6 17 3 7 -4 8 -2 4 5
-4 6 -11 9 -16 6 -4 -3 -11 2 -14 11 -3 8 -10 12 -16 9 -14 -9 -12 28 3 44 7
8 7 11 1 8 -7 -4 -17 0 -24 8 -10 12 -10 18 0 30 12 15 11 16 -12 19 -7 0 -13
6 -13 13 0 6 -3 15 -7 19 -4 3 -6 -3 -3 -15 2 -11 0 -21 -6 -21 -10 0 -8 28 4
48 5 7 3 12 -4 12 -8 0 -8 4 1 15 8 10 9 15 2 15 -6 0 -16 -8 -21 -17 -6 -10
-11 -13 -11 -7 0 6 7 17 15 24 20 17 2 50 -27 47 -17 -1 -23 6 -30 32 -7 26
-12 31 -19 20 -5 -8 -9 -9 -10 -4 -1 6 -2 15 -4 20 -1 6 -3 18 -3 28 -1 9 -10
17 -19 17 -13 0 -14 3 -5 12 14 14 -4 52 -20 42 -7 -5 -9 0 -5 15 3 14 0 24
-9 28 -8 3 -14 11 -14 19 0 8 -7 14 -15 14 -9 0 -20 17 -27 45 -7 25 -17 46
-23 47 -5 0 -14 2 -20 3 -5 2 -16 3 -22 4 -7 0 -13 10 -13 22 0 23 -18 60 -34
71 -8 5 -7 8 2 8 6 0 12 6 12 14 0 13 -19 26 -48 32 -19 4 -23 9 -25 33 -1 11
-7 21 -14 21 -7 0 -13 9 -13 19 0 11 -5 23 -10 26 -6 4 -7 11 -4 17 4 6 3 8
-3 5 -5 -3 -15 3 -23 13 -8 10 -18 16 -23 13 -5 -3 -6 4 -2 16 4 12 2 21 -4
21 -6 0 -11 7 -11 15 0 8 -6 12 -14 9 -11 -4 -27 14 -30 37 -1 5 -33 42 -82
95 -12 12 -24 29 -27 38 -4 9 -11 16 -17 16 -5 0 -10 7 -10 16 0 8 -5 12 -11
9 -16 -11 -40 27 -27 43 8 9 7 11 -6 6 -12 -5 -15 -2 -9 12 4 12 3 15 -5 10
-7 -4 -12 -2 -12 6 0 10 -2 10 -9 -1 -6 -9 -11 -10 -15 -2 -4 6 -11 9 -16 6
-5 -3 -12 0 -16 6 -5 8 -3 9 6 4 9 -5 11 -4 6 3 -4 7 -14 9 -24 4 -23 -10 -43
-9 -69 6 -15 8 -24 9 -28 2 -5 -8 -11 -8 -19 -1 -8 7 -16 7 -22 1 -6 -6 -14
-3 -21 9 -9 14 -8 18 3 18 7 0 11 -4 9 -7 -3 -4 8 -7 23 -7 21 1 28 7 29 22 2
18 1 18 -8 2 -8 -13 -14 -15 -30 -7 -10 6 -19 7 -19 3 0 -4 -8 1 -16 12 -10
11 -14 14 -12 5 7 -24 -15 -40 -30 -21 -12 14 -13 14 -7 -4 6 -18 4 -18 -15 3
-12 13 -26 19 -33 15 -17 -10 -47 -11 -41 -1 4 5 12 7 20 4 17 -7 29 13 16 26
-6 6 -8 18 -5 27 5 13 3 14 -7 4 -10 -9 -10 -15 -2 -26 10 -12 6 -14 -24 -12
-32 3 -63 15 -36 15 6 0 9 6 6 14 -3 8 0 17 6 21 7 4 10 1 8 -10 -2 -10 3 -19
10 -21 7 -1 8 0 2 3 -5 2 -8 9 -4 14 10 17 -7 31 -22 18 -11 -9 -14 -9 -14 1
0 7 -7 10 -15 7 -8 -4 -17 -2 -20 3 -6 10 -23 8 -52 -8 -19 -11 -21 -10 -19
13 2 13 0 22 -5 20 -4 -3 -11 0 -15 6 -4 8 -9 7 -15 -2 -7 -11 -9 -11 -9 1 0
13 -1 13 -10 0 -9 -13 -11 -13 -21 0 -9 13 -10 12 -5 -3 3 -10 6 -21 6 -23 0
-3 6 -2 13 3 22 14 47 13 47 -1 0 -8 -4 -18 -10 -21 -5 -3 -7 0 -4 8 3 8 -2
14 -11 14 -8 0 -15 -4 -15 -9 0 -13 -17 -9 -34 8 -9 8 -14 19 -11 24 3 5 1 11
-4 15 -6 3 -8 -3 -6 -15z m-21 -32 c-5 -8 -1 -9 12 -4 15 6 16 5 7 -5 -10 -10
-15 -9 -27 1 -16 13 -12 35 5 24 5 -3 6 -10 3 -16z m-30 -3 c3 -9 -3 -19 -17
-25 -19 -10 -20 -9 -6 2 9 7 14 19 12 26 -6 17 4 15 11 -3z m234 -5 c1 -2 7
-3 14 -4 6 0 13 -8 15 -16 4 -13 3 -13 -6 0 -9 13 -11 12 -11 -5 -1 -18 -2
-18 -10 3 -13 30 -21 28 -16 -4 3 -15 3 -25 1 -23 -2 2 -4 9 -5 14 -1 6 -6 17
-11 27 -7 12 -5 15 9 13 9 -2 18 -4 20 -5z m-291 -26 c-3 -3 -12 -4 -19 -1 -8
3 -5 6 6 6 11 1 17 -2 13 -5z m-62 -14 c3 -5 1 -10 -4 -10 -6 0 -11 5 -11 10
0 6 2 10 4 10 3 0 8 -4 11 -10z m-281 -96 c3 -8 2 -12 -4 -9 -6 3 -10 10 -10
16 0 14 7 11 14 -7z m946 -3 c0 -6 -4 -12 -8 -15 -5 -3 -9 1 -9 9 0 8 4 15 9
15 4 0 8 -4 8 -9z m80 -21 c0 -5 -7 -7 -15 -4 -8 4 -15 8 -15 10 0 2 7 4 15 4
8 0 15 -4 15 -10z m850 -1116 c0 -8 -19 -13 -24 -6 -3 5 1 9 9 9 8 0 15 -2 15
-3z m2 -67 c-4 -9 -48 -5 -58 6 -3 3 6 4 21 1 l27 -5 -22 33 -23 33 30 -30
c16 -16 28 -33 25 -38z m29 -51 c1 -6 1 -17 0 -23 -1 -7 4 -13 10 -13 7 0 10
-3 6 -6 -3 -4 6 -22 20 -41 15 -20 28 -45 29 -57 2 -11 0 -15 -2 -8 -3 6 -10
10 -15 6 -5 -3 -9 -2 -8 3 4 21 -2 24 -18 12 -14 -10 -13 -8 2 10 19 23 19 24
1 17 -15 -5 -17 -4 -7 8 9 11 9 16 -1 22 -7 5 -16 9 -20 9 -3 0 -10 4 -15 9
-5 5 -3 6 5 2 15 -9 15 -4 1 28 -7 14 -16 23 -22 19 -6 -3 -7 -2 -4 4 8 13 37
12 38 -1z m-27 -24 c3 -5 -1 -9 -9 -9 -8 0 -12 4 -9 9 3 4 7 8 9 8 2 0 6 -4 9
-8z m3124 -107 c-3 -3 -9 2 -12 12 -6 14 -5 15 5 6 7 -7 10 -15 7 -18z m-27
-32 c12 -16 12 -17 -2 -6 -9 7 -20 9 -24 5 -5 -4 -5 -1 -1 6 9 16 11 15 27 -5z
m-3016 -2 c3 -5 2 -12 -3 -15 -5 -3 -9 1 -9 9 0 17 3 19 12 6z m88 -49 c19
-20 19 -21 -13 -20 -20 1 -27 4 -18 9 10 7 10 9 -2 9 -13 0 -13 1 0 10 13 8
12 10 -5 11 -11 1 -27 1 -35 0 -10 0 -11 1 -2 5 6 3 9 10 6 16 -10 16 50 -18
69 -40z m2889 1 c-6 -3 -10 -9 -6 -14 3 -5 0 -9 -6 -9 -6 0 -8 -5 -4 -12 4 -7
3 -8 -5 -4 -6 4 -8 13 -5 19 15 26 27 37 33 31 3 -4 0 -9 -7 -11z m-2824 -84
c7 -11 7 -20 0 -30 -8 -11 -9 -11 -5 3 6 19 -15 42 -28 30 -5 -4 -5 -1 -1 6 4
6 3 12 -2 12 -6 0 -13 7 -16 15 -5 13 -1 12 18 -2 13 -10 29 -25 34 -34z
m2716 -107 c3 -5 -1 -9 -9 -9 -8 0 -12 4 -9 9 3 4 7 8 9 8 2 0 6 -4 9 -8z
m-87 -27 c0 -8 -7 -17 -14 -20 -9 -3 -12 -13 -8 -27 5 -19 4 -20 -5 -6 -7 12
-7 24 2 42 12 29 25 34 25 11z m-2223 -120 c11 0 20 -8 22 -18 2 -14 -1 -16
-11 -7 -9 8 -14 8 -17 0 -2 -6 -11 4 -21 22 -10 18 -12 26 -5 18 7 -9 22 -15
32 -15z m2117 2 c-10 -9 -11 -8 -5 6 3 10 9 15 12 12 3 -3 0 -11 -7 -18z
m-2051 -45 c-6 -2 -7 -9 -3 -15 3 -7 2 -8 -3 -4 -5 5 -9 12 -9 15 0 4 -4 13
-9 20 -7 11 -4 11 13 0 12 -7 17 -14 11 -16z m1951 13 c3 2 6 -6 6 -18 1 -12
-1 -17 -5 -12 -4 6 -16 12 -26 13 -18 3 -18 2 -5 -14 13 -16 12 -16 -8 -3 -21
12 -21 14 -5 30 10 10 21 13 28 8 6 -5 13 -7 15 -4z m-1742 -34 c6 5 4 1 -4
-9 -14 -15 -17 -15 -25 -2 -9 13 -11 13 -21 0 -9 -13 -10 -12 -5 3 3 9 1 17
-4 17 -6 0 -10 -6 -10 -14 0 -8 -4 -17 -8 -20 -6 -4 -9 37 -3 52 0 2 16 -5 35
-16 21 -13 38 -17 45 -11z m154 -19 c-10 -10 -20 -17 -22 -16 -6 5 20 34 30
34 5 0 1 -8 -8 -18z m1455 -10 c2 -7 7 -10 11 -8 4 3 8 -1 8 -9 0 -13 -3 -13
-17 0 -23 21 -35 19 -19 -2 11 -15 11 -16 -1 -6 -8 7 -15 19 -16 27 -2 17 28
15 34 -2z m-244 -68 c3 -8 2 -12 -4 -9 -6 3 -10 10 -10 16 0 14 7 11 14 -7z
m-56 -25 c9 -12 9 -16 -1 -16 -7 0 -14 9 -14 20 -1 11 -1 18 0 16 2 -2 8 -11
15 -20z m-161 -15 c0 -7 -5 -15 -12 -17 -6 -3 -11 3 -11 12 0 10 5 18 11 18 7
0 12 -6 12 -13z m-397 2 c0 -3 -4 -8 -10 -11 -5 -3 -10 -1 -10 4 0 6 5 11 10
11 6 0 10 -2 10 -4z m250 -31 c0 -12 -19 -12 -23 0 -4 9 -1 12 9 8 7 -3 14 -7
14 -8z m-150 1 c0 -3 -4 -8 -10 -11 -5 -3 -10 -1 -10 4 0 6 5 11 10 11 6 0 10
-2 10 -4z m3175 -794 c-3 -3 -11 0 -18 7 -9 10 -8 11 6 5 10 -3 15 -9 12 -12z
m-7204 -1459 c13 -16 12 -17 -3 -4 -10 7 -18 15 -18 17 0 8 8 3 21 -13z m-25
-88 c1 -19 -2 -22 -12 -15 -6 6 -11 19 -9 28 2 9 4 19 4 21 3 13 15 -14 17
-34z m14 -39 c0 -2 -7 -7 -16 -10 -8 -3 -12 -2 -9 4 6 10 25 14 25 6z m17
-340 c0 -8 -6 -12 -15 -9 -11 5 -11 7 0 14 7 5 13 9 14 9 0 0 1 -6 1 -14z m-5
-43 c-10 -4 -10 -8 0 -21 12 -15 11 -16 -4 -3 -19 14 -15 32 5 30 8 0 8 -2 -1
-6z m28 -203 c0 -5 -7 -10 -16 -10 -8 0 -12 5 -9 10 3 6 10 10 16 10 5 0 9 -4
9 -10z m6851 -13 c-10 -9 -11 -8 -5 6 3 10 9 15 12 12 3 -3 0 -11 -7 -18z
m-6851 -18 c0 6 5 11 12 11 9 0 9 -3 0 -12 -14 -14 -16 -32 -4 -24 5 3 9 -1 9
-9 0 -21 -3 -19 -28 18 -16 21 -17 27 -6 18 11 -9 17 -10 17 -2z m6831 -52
c-10 -9 -11 -8 -5 6 3 10 9 15 12 12 3 -3 0 -11 -7 -18z m-6771 -232 c11 -13
10 -14 -4 -9 -9 3 -16 10 -16 15 0 13 6 11 20 -6z m75 -335 c3 -5 1 -10 -4
-10 -6 0 -11 5 -11 10 0 6 2 10 4 10 3 0 8 -4 11 -10z m6514 -153 c-16 -31
-18 -32 -16 -8 1 11 5 21 10 21 4 0 5 5 1 12 -4 7 -3 8 4 4 9 -5 9 -13 1 -29z
m-6462 -1 c-1 -6 4 -10 12 -8 12 3 12 0 2 -12 -10 -12 -8 -17 16 -30 33 -18
25 -21 -12 -4 -14 6 -26 15 -26 20 -3 19 -5 24 -11 34 -4 6 -1 11 7 11 8 0 13
-5 12 -11z m93 -152 c0 -8 -19 -13 -24 -6 -3 5 1 9 9 9 8 0 15 -2 15 -3z m24
-125 c3 -3 -4 -5 -14 -6 -11 -1 -22 2 -25 8 -6 9 30 7 39 -2z m31 -98 c-3 -2
0 -10 6 -18 9 -9 8 -13 0 -13 -6 0 -11 5 -11 11 0 5 -5 7 -12 3 -6 -4 -8 -3
-4 4 3 5 0 12 -6 15 -7 3 -3 4 9 4 12 -1 20 -3 18 -6z m6165 -103 c0 -4 -4 -8
-9 -8 -6 0 -12 4 -15 8 -3 5 1 9 9 9 8 0 15 -4 15 -9z m-44 -73 c-2 -14 -5
-24 -8 -23 -3 2 -12 -3 -21 -10 -21 -18 -30 0 -12 24 15 18 15 18 9 -1 -6 -20
-6 -20 10 0 9 11 14 25 11 33 -2 7 -1 10 4 7 5 -3 8 -17 7 -30z m-6046 20 c0
-2 -10 -9 -22 -15 -22 -11 -22 -10 -4 4 21 17 26 19 26 11z m10 -65 c0 -5 -2
-10 -4 -10 -3 0 -8 5 -11 10 -3 6 -1 10 4 10 6 0 11 -4 11 -10z m5931 -23
c-10 -9 -11 -8 -5 6 3 10 9 15 12 12 3 -3 0 -11 -7 -18z m-5918 1 c-2 -5 -10
-8 -18 -8 -8 0 -16 3 -18 8 -3 4 5 7 18 7 13 0 21 -3 18 -7z m5927 -40 c0 -6
-3 -8 -6 -5 -4 3 -15 2 -25 -4 -15 -7 -17 -6 -13 6 3 8 10 12 15 9 5 -3 9 0 9
6 0 6 5 8 10 5 6 -3 10 -11 10 -17z m-112 -115 c-2 -34 -25 -64 -43 -57 -10 4
-9 10 6 25 11 11 17 25 13 31 -4 7 -3 8 4 4 7 -4 12 -1 12 8 0 9 2 16 5 16 3
0 4 -12 3 -27z m-53 -71 c-3 -3 -11 0 -18 7 -9 10 -8 11 6 5 10 -3 15 -9 12
-12z m-38 -44 c-3 -8 -6 -5 -6 6 -1 11 2 17 5 13 3 -3 4 -12 1 -19z m20 -29
c-7 -12 -13 -15 -16 -7 -2 7 1 14 8 16 6 2 8 9 5 14 -4 7 -2 8 4 4 9 -5 8 -12
-1 -27z m-5517 -94 c14 -19 14 -19 -2 -6 -10 7 -18 18 -18 24 0 6 1 8 3 6 1
-2 9 -13 17 -24z m5320 -25 c0 -5 -2 -10 -4 -10 -3 0 -8 5 -11 10 -3 6 -1 10
4 10 6 0 11 -4 11 -10z m-120 -24 c0 -2 -8 -10 -17 -17 -16 -13 -17 -12 -4 4
13 16 21 21 21 13z m-5093 -33 c-3 -5 1 -14 9 -21 9 -8 14 -9 14 -2 0 7 6 5
15 -4 8 -8 15 -18 15 -22 0 -3 -7 -1 -15 6 -8 7 -15 9 -15 5 0 -5 -9 0 -20 10
-17 15 -19 35 -4 35 3 0 3 -3 1 -7z m110 -38 c0 -8 -4 -12 -9 -9 -5 3 -6 10
-3 15 9 13 12 11 12 -6z m78 -47 c5 4 5 2 1 -5 -8 -14 -36 -6 -36 9 0 7 5 6
13 -1 8 -6 18 -7 22 -3z m62 -3 c0 -8 -4 -12 -9 -9 -5 3 -6 10 -3 15 9 13 12
11 12 -6z m33 -15 c0 -5 -5 -10 -11 -10 -5 0 -7 5 -4 10 3 6 8 10 11 10 2 0 4
-4 4 -10z m320 -124 c-7 -7 -13 -7 -20 0 -6 6 -3 10 10 10 13 0 16 -4 10 -10z
m76 -38 c4 -7 3 -8 -4 -4 -7 4 -12 2 -12 -5 0 -7 -3 -10 -6 -6 -6 5 3 27 11
27 2 0 7 -5 11 -12z m7 -25 c-7 -2 -13 -9 -13 -14 0 -6 5 -7 12 -3 7 5 8 3 3
-5 -5 -9 -11 -9 -17 -3 -12 12 -2 32 15 31 9 0 9 -2 0 -6z m122 -83 c-3 -5
-12 -10 -18 -10 -7 0 -6 4 3 10 19 12 23 12 15 0z m3676 -27 c-12 -20 -14 -14
-5 12 4 9 9 14 11 11 3 -2 0 -13 -6 -23z m-12 -39 c-9 -11 -15 -11 -25 -3 -8
6 -14 14 -14 16 0 3 8 -1 17 -8 15 -12 16 -12 10 3 -4 12 -2 15 9 11 11 -4 12
-8 3 -19z m-93 -50 c-4 -24 -35 -39 -49 -24 -9 10 -9 11 0 6 7 -4 21 -2 30 3
10 6 14 11 10 11 -5 0 -5 5 -2 10 9 15 14 12 11 -6z m-3398 -29 c-3 -3 -9 2
-12 12 -6 14 -5 15 5 6 7 -7 10 -15 7 -18z m3313 -38 c-10 -9 -11 -8 -5 6 3
10 9 15 12 12 3 -3 0 -11 -7 -18z m-3188 -32 c-3 -9 -8 -14 -10 -11 -3 3 -2 9
2 15 9 16 15 13 8 -4z m3142 -14 c-3 -3 -10 1 -15 9 -9 14 -14 7 -11 -13 1 -5
-3 -6 -9 -2 -8 5 -7 11 1 21 9 11 15 12 26 3 7 -7 11 -14 8 -18z m-3080 -29
c-3 -3 -11 0 -18 7 -9 10 -8 11 6 5 10 -3 15 -9 12 -12z m196 -99 c13 -17 13
-17 -5 -3 -18 14 -19 13 -13 -9 4 -17 3 -21 -5 -13 -6 6 -8 18 -5 26 8 20 11
20 28 -1z m2584 -13 c0 -18 -32 -21 -39 -4 -4 12 -2 12 14 4 12 -6 20 -7 20
-1 0 5 -5 12 -10 14 -6 3 -5 4 2 3 7 -2 13 -9 13 -16z m-2625 0 c0 -5 -2 -10
-4 -10 -3 0 -8 5 -11 10 -3 6 -1 10 4 10 6 0 11 -4 11 -10z m185 -89 c-3 -6
-11 -11 -16 -11 -5 0 -4 6 3 14 14 16 24 13 13 -3z m2275 5 c0 -2 -7 -7 -16
-10 -8 -3 -12 -2 -9 4 6 10 25 14 25 6z m-2015 -76 c3 -5 1 -10 -4 -10 -6 0
-11 5 -11 10 0 6 2 10 4 10 3 0 8 -4 11 -10z m240 -39 c3 -5 2 -12 -3 -15 -5
-3 -9 1 -9 9 0 17 3 19 12 6z m-65 -22 c0 -8 6 -7 17 2 11 10 14 10 9 2 -4 -7
-2 -13 3 -13 6 0 11 -5 11 -11 0 -8 -4 -8 -12 -2 -7 6 -25 9 -40 8 -22 -2 -26
1 -17 12 14 16 29 17 29 2z m1619 -17 c-1 -15 -2 -15 -6 1 -2 9 -9 14 -15 11
-7 -4 -8 -2 -4 5 10 15 26 4 25 -17z m-1506 -12 c-5 -19 -23 -29 -23 -12 0 7
20 32 26 32 1 0 0 -9 -3 -20z m34 3 c-4 -3 -2 -12 4 -19 7 -9 6 -12 -8 -10
-10 2 -17 6 -15 9 1 4 2 12 2 17 0 6 5 10 12 10 6 0 8 -3 5 -7z m101 -29 c2
-1 -5 -5 -15 -8 -9 -4 -14 -4 -10 0 4 4 1 14 -6 23 -11 14 -10 15 8 1 11 -8
21 -15 23 -16z m70 -11 c7 -7 9 -13 4 -13 -4 0 -16 6 -26 13 -14 10 -15 14 -4
14 7 0 19 -6 26 -14z m107 -8 c-3 -32 -11 -40 -19 -20 -4 11 -2 14 6 9 7 -5 9
-2 5 8 -3 9 -3 19 0 22 10 10 11 7 8 -19z m640 6 c3 -5 2 -12 -3 -15 -5 -3 -9
1 -9 9 0 17 3 19 12 6z m-694 -18 c13 -15 12 -15 -8 -4 -24 12 -29 21 -14 21
5 0 15 -7 22 -17z m436 10 c-7 -11 15 -29 33 -28 8 1 14 7 12 13 -2 10 3 10
17 3 10 -6 20 -9 22 -8 2 1 -5 -6 -16 -15 -11 -9 -24 -13 -30 -10 -5 4 -19 7
-30 7 -11 0 -20 7 -21 15 0 17 5 30 12 30 3 0 3 -3 1 -7z m317 -5 c-3 -4 -11
-5 -19 -1 -21 7 -19 12 4 10 11 0 18 -5 15 -9z m139 -3 c4 -8 3 -16 -1 -19 -4
-3 -9 4 -9 15 -2 23 3 25 10 4z m-730 -8 c3 -8 -1 -14 -8 -14 -7 0 -11 6 -8
14 3 7 6 13 8 13 2 0 5 -6 8 -13z m117 -2 c11 -2 20 2 20 8 0 8 3 8 8 2 4 -6
16 -11 27 -11 11 0 23 5 27 11 5 6 8 5 8 -3 0 -8 5 -10 13 -6 9 6 9 4 -1 -8
-13 -16 -35 -18 -48 -5 -4 3 -12 3 -18 0 -21 -13 -115 -10 -120 4 -3 7 -1 13
4 13 6 0 10 -4 10 -9 0 -5 8 -8 18 -6 9 1 16 8 14 15 -1 6 2 9 8 5 5 -3 19 -8
30 -10z m287 -17 c-3 -8 -6 -5 -6 6 -1 11 2 17 5 13 3 -3 4 -12 1 -19z m170 9
c6 -4 14 -3 18 3 9 14 28 13 23 -2 -6 -16 -48 -21 -48 -5 0 9 -2 9 -9 -1 -7
-11 -9 -11 -14 1 -6 15 9 17 30 4z m133 9 c0 -3 -4 -8 -10 -11 -5 -3 -10 -1
-10 4 0 6 5 11 10 11 6 0 10 -2 10 -4z m64 -4 c3 -5 -1 -9 -9 -9 -8 0 -15 4
-15 9 0 4 4 8 9 8 6 0 12 -4 15 -8z"/>
<path d="M7291 1737 c-13 -21 -12 -21 5 -5 10 10 16 20 13 22 -3 3 -11 -5 -18
-17z"/>
<path d="M1637 8474 c2 -7 12 -11 21 -10 21 3 13 20 -10 21 -9 1 -14 -4 -11
-11z"/>
<path d="M1564 8465 c-5 -13 -9 -13 -22 -3 -11 9 -14 9 -9 1 4 -7 0 -16 -10
-22 -10 -6 -13 -11 -6 -11 6 0 14 4 18 10 3 5 12 7 19 4 8 -3 16 4 19 15 6 24
-1 28 -9 6z"/>
<path d="M2188 8438 c2 -10 8 -19 13 -19 20 -3 24 -5 37 -12 17 -11 15 1 -3
19 -8 9 -20 12 -27 8 -7 -5 -9 -2 -6 8 4 8 1 15 -7 15 -7 0 -10 -8 -7 -19z"/>
<path d="M2399 8397 c8 -10 9 -17 3 -17 -6 0 -14 5 -17 10 -8 13 -25 13 -25
-1 0 -5 4 -8 9 -4 6 3 14 -2 19 -11 6 -11 11 -13 16 -5 4 6 12 11 17 11 6 0 7
-5 3 -12 -4 -7 -3 -8 4 -4 16 10 16 11 -15 32 -24 15 -26 15 -14 1z"/>
<path d="M2460 8386 c0 -2 8 -10 18 -17 15 -13 16 -12 3 4 -13 16 -21 21 -21
13z"/>
<path d="M8470 8010 c-8 -5 -12 -12 -9 -15 8 -8 39 5 39 16 0 11 -11 11 -30
-1z"/>
<path d="M7425 7850 c-3 -5 -1 -10 4 -10 6 0 11 5 11 10 0 6 -2 10 -4 10 -3 0
-8 -4 -11 -10z"/>
<path d="M8600 7784 c0 -8 5 -12 10 -9 6 3 10 10 10 16 0 5 -4 9 -10 9 -5 0
-10 -7 -10 -16z"/>
<path d="M3334 7149 c-3 -6 -2 -15 3 -20 5 -5 9 -1 9 11 0 23 -2 24 -12 9z"/>
<path d="M3426 6972 c-3 -5 1 -9 9 -9 8 0 12 4 9 9 -3 4 -7 8 -9 8 -2 0 -6 -4
-9 -8z"/>
<path d="M6243 6797 c4 -10 2 -17 -6 -17 -8 0 -6 -4 3 -10 13 -8 12 -10 -2
-10 -16 0 -23 -11 -19 -33 1 -5 -9 -6 -21 -3 -13 3 -17 3 -10 0 19 -9 14 -24
-5 -18 -15 5 -15 4 -3 -5 11 -7 19 -6 32 6 10 9 15 19 12 24 -2 4 5 13 16 19
11 6 18 15 15 20 -3 4 -1 10 4 12 5 1 2 10 -7 18 -14 13 -15 12 -9 -3z"/>
<path d="M6105 6670 c-3 -6 1 -7 9 -4 18 7 21 14 7 14 -6 0 -13 -4 -16 -10z"/>
<path d="M3755 6631 c-6 -11 9 -23 19 -14 9 9 7 23 -3 23 -6 0 -12 -4 -16 -9z"/>
<path d="M6040 6617 c0 -3 11 -12 24 -20 21 -14 25 -15 30 -1 3 8 1 12 -4 9
-5 -3 -19 -1 -30 5 -11 6 -20 9 -20 7z"/>
<path d="M5996 6583 c-6 -14 -5 -15 5 -6 7 7 10 15 7 18 -3 3 -9 -2 -12 -12z"/>
<path d="M6011 6566 c-10 -12 -6 -26 10 -26 11 0 19 29 10 35 -5 2 -14 -1 -20
-9z"/>
<path d="M4035 6550 c3 -5 8 -10 11 -10 2 0 4 5 4 10 0 6 -5 10 -11 10 -5 0
-7 -4 -4 -10z"/>
<path d="M5955 6550 c-3 -5 -1 -10 4 -10 6 0 11 5 11 10 0 6 -2 10 -4 10 -3 0
-8 -4 -11 -10z"/>
<path d="M4210 6529 c0 -5 5 -7 10 -4 6 3 10 8 10 11 0 2 -4 4 -10 4 -5 0 -10
-5 -10 -11z"/>
<path d="M4055 6502 c-4 -10 0 -12 11 -8 8 3 18 6 20 6 2 0 4 4 4 8 0 15 -29
9 -35 -6z"/>
<path d="M4440 6505 c-7 -9 -11 -17 -9 -20 3 -2 10 5 17 15 14 24 10 26 -8 5z"/>
<path d="M5740 6455 c0 -2 7 -8 15 -15 12 -10 15 -10 15 2 0 8 -7 15 -15 15
-8 0 -15 -1 -15 -2z"/>
<path d="M4827 6406 c-12 -9 -14 -16 -8 -21 6 -3 11 -1 11 6 0 8 4 8 15 -1 10
-9 15 -9 15 -1 0 6 -5 11 -11 11 -5 0 -7 5 -4 10 8 13 4 12 -18 -4z"/>
<path d="M5510 6408 c0 -4 4 -8 9 -8 6 0 12 4 15 8 3 5 -1 9 -9 9 -8 0 -15 -4
-15 -9z"/>
<path d="M4917 6396 c-11 -28 4 -37 33 -20 22 13 22 14 3 9 -15 -4 -22 -1 -25
12 -3 17 -4 17 -11 -1z"/>
<path d="M5360 6386 c7 -7 13 -7 20 0 6 6 3 10 -10 10 -13 0 -16 -4 -10 -10z"/>
<path d="M5470 6388 c0 -9 5 -20 10 -23 13 -8 13 5 0 25 -8 13 -10 13 -10 -2z"/>
<path d="M8270 5976 c0 -9 5 -16 10 -16 6 0 10 4 10 9 0 6 -4 13 -10 16 -5 3
-10 -1 -10 -9z"/>
<path d="M465 5670 c3 -5 8 -10 11 -10 2 0 4 5 4 10 0 6 -5 10 -11 10 -5 0 -7
-4 -4 -10z"/>
<path d="M8255 5550 c3 -5 8 -10 11 -10 2 0 4 5 4 10 0 6 -5 10 -11 10 -5 0
-7 -4 -4 -10z"/>
<path d="M8316 5523 c-6 -14 -5 -15 5 -6 7 7 10 15 7 18 -3 3 -9 -2 -12 -12z"/>
<path d="M105 5470 c-3 -5 1 -10 10 -10 9 0 13 5 10 10 -3 6 -8 10 -10 10 -2
0 -7 -4 -10 -10z"/>
<path d="M136 5451 c-4 -7 -5 -15 -2 -18 9 -9 19 4 14 18 -4 11 -6 11 -12 0z"/>
<path d="M159 5403 c-13 -16 -12 -17 4 -4 16 13 21 21 13 21 -2 0 -10 -8 -17
-17z"/>
<path d="M983 4054 c-3 -8 -1 -20 4 -25 5 -5 9 1 9 16 0 29 -4 32 -13 9z"/>
<path d="M998 3903 c-21 -5 -29 -26 -17 -44 8 -11 9 -10 7 5 -2 10 3 21 10 23
8 3 10 -1 5 -14 -3 -10 -3 -15 1 -12 6 5 18 51 13 48 -1 -1 -9 -3 -19 -6z"/>
<path d="M996 3781 c-18 -7 -18 -8 -3 -14 9 -3 17 -12 17 -18 0 -8 -5 -7 -17
2 -17 13 -17 13 0 -7 9 -11 15 -23 12 -26 -10 -10 -14 -49 -4 -43 5 4 7 11 4
16 -4 5 -2 9 2 9 5 0 9 20 9 45 -1 25 -1 45 -1 44 0 0 -9 -4 -19 -8z"/>
<path d="M976 3727 c3 -10 9 -15 12 -12 3 3 0 11 -7 18 -10 9 -11 8 -5 -6z"/>
<path d="M7990 3481 c-8 -6 -18 -7 -24 -4 -5 3 -6 1 -2 -5 5 -9 13 -9 27 -2
10 6 19 13 19 15 0 7 -3 6 -20 -4z"/>
<path d="M7960 3420 c-9 -6 -10 -10 -3 -10 6 0 15 5 18 10 8 12 4 12 -15 0z"/>
<path d="M7948 3323 c-24 -6 -23 -19 0 -19 10 0 19 6 19 13 0 7 -1 12 -1 12
-1 -1 -9 -3 -18 -6z"/>
<path d="M7990 3311 c0 -6 4 -13 10 -16 6 -3 7 1 4 9 -7 18 -14 21 -14 7z"/>
<path d="M7934 3205 c3 -23 12 -26 13 -5 1 11 -2 20 -7 20 -4 0 -7 -7 -6 -15z"/>
<path d="M7925 3158 c2 -15 -2 -29 -8 -32 -7 -2 -4 -5 7 -5 11 -1 16 4 13 13
-3 7 0 19 6 26 9 10 9 11 0 6 -6 -3 -14 0 -17 6 -3 7 -3 1 -1 -14z"/>
<path d="M1079 3158 c-7 -16 -5 -78 2 -78 5 0 8 3 8 8 -1 4 0 9 1 12 7 20 7
40 -1 40 -6 0 -7 5 -4 10 3 6 4 10 1 10 -3 0 -6 -1 -7 -2z"/>
<path d="M7913 3104 c4 -4 1 -14 -6 -23 -11 -14 -10 -15 8 -1 11 8 21 15 23
16 2 1 -5 5 -15 8 -9 4 -14 4 -10 0z"/>
<path d="M1074 3009 c-1 -17 -1 -29 0 -27 1 2 7 10 14 19 10 13 10 19 -1 27
-9 8 -13 4 -13 -19z"/>
<path d="M1069 2913 c-13 -16 -12 -17 4 -4 9 7 17 15 17 17 0 8 -8 3 -21 -13z"/>
<path d="M7840 2876 c0 -2 9 -6 20 -9 11 -3 18 -1 14 4 -5 9 -34 13 -34 5z"/>
<path d="M7784 2716 c1 -8 5 -18 8 -22 4 -3 5 1 4 10 -1 8 -5 18 -8 22 -4 3
-5 -1 -4 -10z"/>
<path d="M1213 2505 c0 -8 4 -12 9 -9 5 3 6 10 3 15 -9 13 -12 11 -12 -6z"/>
<path d="M7735 2491 c-3 -5 -2 -12 3 -15 5 -3 9 1 9 9 0 17 -3 19 -12 6z"/>
<path d="M7686 2441 c-15 -17 -15 -20 4 -42 12 -14 19 -18 18 -9 -2 8 3 14 10
12 8 -1 11 2 7 8 -5 8 -12 7 -23 -2 -14 -11 -15 -10 -9 5 4 10 7 23 7 28 0 4
7 6 15 3 8 -4 15 -4 15 -1 0 15 -30 13 -44 -2z"/>
<path d="M1316 2235 c4 -8 11 -15 16 -15 6 0 5 6 -2 15 -7 8 -14 15 -16 15 -2
0 -1 -7 2 -15z"/>
<path d="M1390 2110 c0 -5 5 -10 11 -10 5 0 7 5 4 10 -3 6 -8 10 -11 10 -2 0
-4 -4 -4 -10z"/>
<path d="M7630 2110 c0 -5 5 -10 11 -10 5 0 7 5 4 10 -3 6 -8 10 -11 10 -2 0
-4 -4 -4 -10z"/>
<path d="M7604 2102 c3 -5 1 -12 -6 -14 -8 -3 -9 -6 -1 -11 6 -4 13 0 17 8 3
8 0 17 -6 21 -6 4 -8 3 -4 -4z"/>
<path d="M7586 2034 c-5 -14 -4 -15 9 -4 17 14 19 20 6 20 -5 0 -12 -7 -15
-16z"/>
<path d="M1430 1889 c0 -5 5 -7 10 -4 6 3 10 8 10 11 0 2 -4 4 -10 4 -5 0 -10
-5 -10 -11z"/>
<path d="M1480 1870 c0 -5 5 -10 11 -10 5 0 7 5 4 10 -3 6 -8 10 -11 10 -2 0
-4 -4 -4 -10z"/>
<path d="M7375 1799 c-4 -6 -5 -12 -2 -15 2 -3 7 2 10 11 7 17 1 20 -8 4z"/>
<path d="M7274 1629 c-3 -6 -2 -15 3 -20 5 -5 9 -1 9 11 0 23 -2 24 -12 9z"/>
<path d="M7198 1594 c-4 -3 -1 -13 7 -20 17 -18 22 -18 22 1 0 8 -4 12 -8 9
-4 -2 -9 1 -11 7 -2 5 -6 7 -10 3z"/>
<path d="M1707 1469 c7 -7 15 -10 18 -7 3 3 -2 9 -12 12 -14 6 -15 5 -6 -5z"/>
<path d="M1790 1470 c0 -5 5 -10 11 -10 5 0 7 5 4 10 -3 6 -8 10 -11 10 -2 0
-4 -4 -4 -10z"/>
<path d="M7050 1476 c0 -2 7 -7 16 -10 8 -3 12 -2 9 4 -6 10 -25 14 -25 6z"/>
<path d="M7035 1450 c-3 -5 -1 -10 4 -10 6 0 11 5 11 10 0 6 -2 10 -4 10 -3 0
-8 -4 -11 -10z"/>
<path d="M1791 1434 c0 -11 3 -14 6 -6 3 7 2 16 -1 19 -3 4 -6 -2 -5 -13z"/>
<path d="M6916 1421 c-4 -7 -5 -15 -2 -18 9 -9 19 4 14 18 -4 11 -6 11 -12 0z"/>
<path d="M6790 1345 c-7 -8 -17 -12 -23 -8 -6 4 -7 1 -3 -6 5 -7 10 -10 14 -7
3 3 11 -2 19 -12 8 -9 12 -11 8 -4 -4 7 -2 19 5 27 6 8 7 16 2 19 -6 3 -15 -1
-22 -9z"/>
<path d="M6704 1296 c-3 -8 -14 -13 -24 -11 -10 2 -21 -2 -23 -9 -3 -7 1 -13
9 -13 8 0 14 5 15 11 0 6 4 2 9 -9 7 -16 9 -17 9 -3 1 9 8 21 17 26 11 6 13
11 5 16 -6 4 -14 1 -17 -8z"/>
<path d="M2272 1256 c2 -19 5 -22 15 -14 12 10 17 4 14 -16 -1 -5 5 -4 14 4
12 10 13 16 4 26 -9 11 -15 12 -26 3 -11 -10 -12 -9 -7 5 3 9 1 16 -5 16 -6 0
-10 -11 -9 -24z"/>
<path d="M6715 1270 c-3 -6 1 -7 9 -4 18 7 21 14 7 14 -6 0 -13 -4 -16 -10z"/>
<path d="M2350 1206 c0 -2 7 -9 15 -16 9 -7 15 -8 15 -2 0 5 -7 12 -15 16 -8
3 -15 4 -15 2z"/>
<path d="M6499 1164 c-19 -14 -33 -30 -31 -36 2 -6 -4 -8 -15 -4 -15 6 -16 5
-5 -6 11 -11 17 -9 33 11 10 13 19 20 19 17 0 -14 34 12 36 28 3 20 4 21 -37
-10z m31 2 c0 -2 -7 -7 -16 -10 -8 -3 -12 -2 -9 4 6 10 25 14 25 6z"/>
<path d="M6450 1089 c0 -5 5 -7 10 -4 6 3 10 8 10 11 0 2 -4 4 -10 4 -5 0 -10
-5 -10 -11z"/>
<path d="M6351 1056 c-9 -10 -9 -16 -1 -21 6 -4 10 -3 9 2 -3 20 2 27 11 13 6
-9 10 -10 10 -3 0 19 -17 24 -29 9z"/>
<path d="M2644 1042 c-14 -11 -14 -29 1 -29 7 0 11 7 8 16 -3 9 4 5 16 -9 11
-14 21 -31 21 -37 0 -15 9 -16 28 -5 9 6 5 12 -13 20 -14 7 -23 16 -20 22 7
12 -28 31 -41 22z"/>
<path d="M2700 956 c0 -2 7 -7 16 -10 8 -3 12 -2 9 4 -6 10 -25 14 -25 6z"/>
<path d="M2750 911 c0 -6 4 -13 10 -16 6 -3 7 1 4 9 -7 18 -14 21 -14 7z"/>
<path d="M2830 910 c0 -5 5 -10 11 -10 5 0 7 5 4 10 -3 6 -8 10 -11 10 -2 0
-4 -4 -4 -10z"/>
<path d="M2880 830 c-9 -6 -10 -10 -3 -10 6 0 15 5 18 10 8 12 4 12 -15 0z"/>
<path d="M2950 827 c0 -8 7 -18 16 -21 8 -3 12 -11 8 -17 -4 -8 -3 -9 4 -5 7
4 12 3 12 -2 0 -18 28 -21 42 -4 8 10 8 13 1 9 -6 -4 -14 -3 -18 3 -4 6 -10 8
-15 5 -5 -3 -18 7 -29 21 -14 18 -21 22 -21 11z"/>
<path d="M5995 818 c-24 -12 -45 -38 -45 -52 1 -6 7 0 15 14 8 14 15 21 15 15
0 -5 5 -3 10 5 8 13 11 12 25 -5 14 -19 15 -19 8 -1 -4 11 -2 17 3 13 6 -3 16
-1 24 5 13 8 12 9 -1 5 -9 -3 -20 -2 -25 3 -5 5 -18 4 -29 -2z"/>
<path d="M5925 781 c-3 -5 -2 -12 3 -15 5 -3 9 1 9 9 0 17 -3 19 -12 6z"/>
<path d="M5885 750 c10 -11 20 -20 22 -20 2 0 -2 9 -9 20 -7 11 -17 20 -22 20
-5 0 -1 -9 9 -20z"/>
<path d="M3080 690 c-9 -6 -10 -10 -3 -10 6 0 15 5 18 10 8 12 4 12 -15 0z"/>
<path d="M3285 620 c-10 -11 -14 -20 -9 -20 5 0 15 9 22 20 7 11 11 20 9 20
-2 0 -12 -9 -22 -20z"/>
<path d="M3386 575 c-19 -19 -22 -32 -3 -17 18 15 29 15 38 0 7 -10 9 -10 9 0
0 6 5 12 10 12 7 0 7 -7 0 -22 -9 -19 -8 -20 2 -6 11 15 13 15 24 0 10 -14 13
-13 23 9 11 21 10 22 -2 7 -13 -16 -15 -16 -27 7 -9 17 -17 22 -25 15 -7 -6
-15 -6 -22 1 -7 7 -15 5 -27 -6z"/>
<path d="M5565 559 c-4 -5 -10 -7 -14 -5 -4 3 -13 1 -20 -3 -9 -6 -4 -8 13 -8
14 0 26 4 26 9 0 6 7 8 15 5 8 -4 16 -3 19 1 3 4 -4 8 -14 9 -11 1 -22 -3 -25
-8z"/>
<path d="M3493 515 c0 -7 6 -11 14 -8 7 3 13 6 13 8 0 2 -6 5 -13 8 -8 3 -14
-1 -14 -8z"/>
<path d="M5465 521 c3 -5 -3 -16 -14 -23 -16 -11 -17 -15 -4 -27 12 -11 14
-10 11 5 -2 14 3 18 19 17 22 -3 22 -2 6 17 -18 21 -28 27 -18 11z"/>
<path d="M3703 493 c4 -6 2 -13 -5 -15 -8 -3 -6 -6 4 -10 17 -7 19 15 3 29 -4
4 -5 3 -2 -4z"/>
<path d="M5343 437 c0 -7 11 -13 28 -12 15 0 25 4 22 8 -3 5 -11 6 -18 3 -7
-2 -17 0 -22 5 -6 6 -10 5 -10 -4z"/>
<path d="M3956 423 c-6 -14 -5 -15 5 -6 7 7 10 15 7 18 -3 3 -9 -2 -12 -12z"/>
<path d="M5169 408 c-4 -15 -9 -51 -6 -47 15 16 26 49 17 49 -5 0 -10 -1 -11
-2z"/>
<path d="M5290 400 c-8 -5 -12 -12 -9 -15 4 -3 12 1 19 10 14 17 11 19 -10 5z"/>
<path d="M4740 352 c0 -4 9 -8 19 -8 11 0 17 4 15 8 -3 4 -12 8 -20 8 -8 0
-14 -4 -14 -8z"/>
</g>
</svg>
